<svg width="64" height="64" viewBox="0 0 64 64" fill="none" xmlns="http://www.w3.org/2000/svg">
<g clip-path="url(#clip0_40_5)">
<path d="M40.6213 14.6347C38.3733 14.5333 37.696 14.512 32 14.512C26.304 14.512 25.6293 14.5333 23.3813 14.6347C17.5947 14.8987 14.8987 17.64 14.6373 23.3787C14.5333 25.6293 14.5093 26.304 14.5093 32C14.5093 37.696 14.5333 38.3707 14.6347 40.6213C14.8987 46.3493 17.584 49.1013 23.3787 49.3653C25.6267 49.4667 26.304 49.4907 32 49.4907C37.6987 49.4907 38.3733 49.4693 40.6213 49.368C46.408 49.104 49.1013 46.3573 49.3653 40.624C49.4667 38.3733 49.488 37.6987 49.488 32.0027C49.488 26.3067 49.4667 25.632 49.3653 23.384C49.1013 17.6427 46.4027 14.8987 40.6213 14.6347ZM32 42.9547C25.9493 42.9547 21.0453 38.0507 21.0453 32C21.0453 25.9493 25.952 21.0453 32 21.0453C38.048 21.0453 42.9547 25.9493 42.9547 32C42.9547 38.0507 38.0507 42.9547 32 42.9547ZM43.3893 23.1733C41.976 23.1733 40.8293 22.0267 40.8293 20.6133C40.8293 19.2 41.976 18.0533 43.3893 18.0533C44.8027 18.0533 45.9493 19.2 45.9493 20.6133C45.9493 22.0267 44.8027 23.1733 43.3893 23.1733ZM39.112 32C39.112 35.928 35.928 39.112 32 39.112C28.072 39.112 24.888 35.928 24.888 32C24.888 28.072 28.072 24.888 32 24.888C35.928 24.888 39.112 28.072 39.112 32ZM50.6667 0H13.3333C5.97067 0 0 5.97067 0 13.3333V50.6667C0 58.0293 5.97067 64 13.3333 64H50.6667C58.032 64 64 58.0293 64 50.6667V13.3333C64 5.97067 58.032 0 50.6667 0ZM53.2053 40.7947C52.8533 48.552 48.536 52.8507 40.7973 53.2053C38.52 53.3093 37.7947 53.3333 32 53.3333C26.2053 53.3333 25.4827 53.3093 23.2053 53.2053C15.4507 52.8507 11.152 48.544 10.7947 40.7947C10.6907 38.52 10.6667 37.7947 10.6667 32C10.6667 26.208 10.6907 25.48 10.7947 23.2053C11.152 15.4507 15.456 11.1493 23.2053 10.7973C25.4827 10.6907 26.2053 10.6667 32 10.6667C37.7947 10.6667 38.52 10.6907 40.7973 10.7947C48.552 11.1493 52.8587 15.464 53.2053 23.2027C53.3093 25.48 53.3333 26.208 53.3333 32C53.3333 37.7947 53.3093 38.52 53.2053 40.7947Z" fill="#F2E3D2"/>
</g>
<defs>
<clipPath id="clip0_40_5">
<rect width="64" height="64" fill="white"/>
</clipPath>
</defs>
</svg>
