<svg width="774" height="580" viewBox="0 0 774 580" fill="none" xmlns="http://www.w3.org/2000/svg">
<path fill-rule="evenodd" clip-rule="evenodd" d="M339.085 253.352C332.212 258.334 333.306 268.137 335.375 275.26C338.422 285.747 344.49 295.456 351.412 303.824C363.693 318.67 384.54 335.339 403.757 322.306C420.871 310.699 431.665 287.277 435.391 267.549C436.543 261.452 438.077 252.368 432.666 247.785C424.666 241.009 410.556 242.242 400.899 243.114C394.539 243.688 388.403 245.638 382.118 244.723C367.516 242.595 351.265 244.522 339.085 253.352Z" fill="#333333"/>
<path fill-rule="evenodd" clip-rule="evenodd" d="M635.148 331.04C621.225 348.701 597.556 351.492 576.533 351.318C563.91 351.214 551.262 350.263 538.886 347.691C532.214 346.304 525.587 344.466 519.14 342.259C514.882 340.801 508.543 340.072 506.73 335.509C501.95 323.47 505.467 308.373 507.436 296.154C508.437 289.939 509.189 283.687 510.162 277.466C510.785 273.487 511.083 269.083 512.752 265.361C514.705 260.999 517.171 261.87 521.301 263.075C526.992 264.736 532.834 265.427 538.685 266.32C552.963 268.5 565.42 272.897 578.397 279.129C591.228 285.29 603.675 291.372 615.12 299.94C620.918 304.282 625.915 308.994 630.57 314.528C634.166 318.803 639.533 325.477 635.148 331.04ZM574.29 409.483C574.178 411.384 552.358 405.644 549.487 405C530.647 400.774 511.433 395.961 493.647 388.326C477.046 381.2 462.418 373.047 449.354 360.385C443.264 354.484 437.787 348.269 432.546 341.65C429.919 338.333 426.33 338.718 423.401 335.911C420.766 333.385 418.746 331.413 419.569 327.636C426.153 329.371 438.311 340.276 445.136 334.77C449.026 331.631 443.63 328.352 441.14 326.533C436.457 323.113 432.453 318.894 428.731 314.465C435.122 315.704 441.071 318.098 446.633 321.429C449.104 322.91 457.574 328.277 459.546 323.161C460.76 320.01 455.016 316.052 453.226 314.31C448.829 310.031 444.082 305.036 441.747 299.284C447.519 297.945 452.96 302.406 456.891 306.039C461.254 310.073 466.602 314.307 470.261 318.955C472.148 321.353 472.559 324.184 474.033 326.77C475.692 329.679 478.346 332.173 480.882 334.326C485.769 338.474 491.484 341.528 497.351 344.054C510.757 349.826 525.126 353.91 539.415 356.776C546.425 358.182 553.263 358.829 560.378 359.068C565.908 359.254 568.355 360.907 570.466 366.002C576.18 379.789 575.143 394.955 574.29 409.483ZM410.197 304.433C407 307.425 402.845 309.301 399.503 312.178C396.563 314.708 393.171 317.408 389.889 319.455C386.385 321.638 383.767 320.108 380.612 318.131C376.909 315.812 372.651 314.872 368.837 312.797C355.648 305.62 339.514 288.031 341.976 271.882C343.019 265.037 346.558 258.302 352.984 255.197C358.82 252.377 367.304 250.812 373.547 253.169C377.069 254.499 379.589 257.435 381.845 260.321C384.477 263.686 385.484 263.155 388.164 259.91C392.959 254.105 400.866 249.012 408.683 249.134C412.568 249.196 416.428 250.015 419.927 251.627C420.401 251.846 420.665 252.508 421.141 252.732C421.726 253.007 422.686 252.435 423.092 252.692C424.117 253.34 425.14 255.367 425.731 256.395C428.103 260.521 432.373 268.613 428.069 272.086C428.067 272.088 428.261 276.787 428.202 277.322C427.898 280.125 426.929 282.44 425.681 285.003C421.932 292.705 416.397 298.634 410.197 304.433ZM416.572 369.593C413.543 370.534 410.281 361.043 413.186 359.528C415.956 358.083 419.314 368.741 416.572 369.593ZM369.002 358.244C367.954 361.83 367.511 365.898 364.945 368.816C362.597 366.03 362.365 360.887 364.643 358.023C365.943 356.388 370.15 354.327 369.002 358.244ZM465.923 295.425C465.906 295.516 469.567 297.267 467.781 299.182C465.34 301.797 465.676 296.707 465.923 295.425ZM481.053 266.205C481.011 269.83 473.337 268.955 473.391 265.309C473.458 260.821 481.098 262.362 481.053 266.205ZM471.892 235.907C472.652 232.588 486.001 227.97 485.637 233.755C485.455 236.655 470.281 242.963 471.892 235.907ZM335.045 348.466C333.549 350.265 331.423 350.974 329.63 352.355C327.748 353.802 326.404 355.68 324.762 357.379C320.25 362.043 314.819 365.876 309.952 370.161C301.004 378.037 292.433 386.505 282.512 393.185C264.784 405.121 244.225 411.65 223.816 417.366C222.125 417.84 217.255 419.751 215.582 418.327C213.778 416.792 214.695 411.389 214.778 409.346C215.117 400.97 216.093 392.496 215.987 384.132C215.944 380.697 214.938 375.814 216.73 372.671C218.731 369.16 224.319 368.133 227.775 366.812C238.281 362.797 248.4 356.024 257.68 349.751C269.088 342.039 280.609 334.199 292.348 327C303.85 319.947 316.536 315.224 329.366 311.196C329.96 312.445 323.838 316.464 323.138 317.028C319.782 319.73 316.131 322.531 313.639 326.097C311.875 328.623 310.066 334.336 314.937 334.483C317.298 334.554 320.788 332.27 322.929 331.532C326.465 330.312 330.108 329.455 333.807 328.898C330.627 332.399 319.849 338.688 321.81 344.511C323.713 350.162 334.718 343.568 338.507 343.568C337.886 345.538 336.325 346.928 335.045 348.466ZM205.025 364.237C197.977 366.715 190.753 368.125 183.478 369.725C176.545 371.25 170.136 372.4 163.034 371.507C153.229 370.274 142.378 366.213 141.135 355.071C139.661 341.87 148.984 329.739 156.989 320.268C166.732 308.745 177.672 298.443 189.529 289.116C201.372 279.797 214.155 271.581 227.548 264.645C237.736 259.369 249.243 256.165 260.016 252.205C262.066 251.452 267.734 248.805 269.651 250.998C271.201 252.772 269.092 255.728 268.386 257.375C267.009 260.586 266.819 263.819 266.464 267.267C264.875 282.664 262.963 298.057 262.084 313.52C261.838 317.83 261.407 322.338 261.658 326.65C261.797 329.039 263.04 332.081 262.212 334.413C260.621 338.896 253.334 341.864 249.472 343.866C242.559 347.451 235.238 350.126 228.253 353.555C220.582 357.321 213.114 361.391 205.025 364.237ZM302.773 264.19C304.708 263.925 307.606 263.398 309.33 264.651C311.58 266.286 310.99 268.56 308.912 269.745C307.272 270.682 303.433 270.939 301.812 270.088C299.051 268.64 299.518 264.639 302.773 264.19ZM313.488 299.844C311.924 302.448 306.211 304.156 306.708 299.296C307.135 295.136 316.367 295.049 313.488 299.844ZM311.367 226.491C313.88 227.465 318.44 228.298 319.186 231.531C319.88 234.54 317.028 234.341 314.971 233.513C313.278 232.833 305.739 226.44 311.367 226.491ZM705.128 341.275C703.66 335.563 704.778 329.239 703.968 323.388C703.182 317.717 701.768 312.505 699.739 307.16C695.246 295.328 690.099 284.676 682.817 274.292C669.101 254.736 653.189 237.51 633.973 223.226C615.003 209.125 593.997 197.665 571.745 189.633C548.149 181.115 524.397 178.15 499.514 176.518C492.083 176.031 484.659 175.453 477.27 174.514C471.87 173.828 465.1 172.983 459.761 174.637C456.406 175.677 454.532 178.602 458.186 180.522C460.777 181.883 464.169 182.046 467.031 182.408C463.574 193.389 457.95 204.407 449.037 211.969C440.336 219.351 428.692 221.881 417.711 223.754C411.756 224.768 405.088 225.553 399.041 225.116C395.217 224.84 392.234 223.069 390.691 227.008C389.621 229.744 389.114 232.746 387.703 228.615C386.034 223.73 385.215 223.762 380.022 222.374C369.403 219.538 357.23 216.949 347.966 210.814C338.355 204.449 335.012 194.152 329.647 184.565C328.319 182.195 324.317 177.398 326.362 174.683C328.232 172.2 334.315 172.447 337.1 172.188C340.039 171.915 342.996 171.903 345.945 171.789C347.654 171.723 351.09 172.423 350.403 169.871C349.366 166.025 338.255 166.518 335.496 166.456C330.365 166.34 325.164 166.459 320.059 167.024C294.746 169.823 269.206 174.999 244.711 181.902C197.188 195.293 151.16 219.969 116.478 255.518C83.1866 289.642 72.6392 346.427 93.1056 389.997C103.742 412.641 126.824 421.943 149.199 429.456C161.002 433.418 173.499 436.518 186.045 435.77C192.066 435.411 197.778 433.79 203.65 432.569C206.211 432.036 209.125 431.186 211.755 431.4C213.746 431.563 215.659 433.391 217.527 432.42C218.852 431.73 219.429 429.752 221.049 428.908C222.993 427.897 225.352 427.532 227.452 427.022C233.291 425.603 238.945 423.303 244.652 421.418C250.553 419.467 256.123 416.955 261.785 414.416C264.645 413.133 271.262 407.919 273.125 411.731C273.974 413.471 273.613 416.827 273.819 418.652C274.182 421.843 274.608 425.027 275.073 428.205C276.099 435.202 277.327 442.169 278.585 449.128C280.857 461.684 283.783 473.704 288.677 485.515C292.584 494.946 296.015 505.635 303.271 513.137C306.438 516.411 310.76 517.885 315.303 516.856C320.47 515.685 323.042 510.991 326.179 507.196C333.081 498.844 344.476 492.445 354.999 490.142C367.884 487.321 380.435 491.447 392.734 494.954C405.743 498.663 418.987 502.198 431.757 506.657C443.656 510.813 456.504 516.95 469.409 516.416C480.662 515.95 491.174 506.791 499.289 499.81C507.441 492.798 517.633 482.532 529.354 483.358C535.174 483.768 540.477 486.575 546.146 487.717C552.37 488.97 558.992 489.148 565.32 489.615C573.176 490.195 590.752 488.146 593.658 478.695C594.089 477.293 594.092 474.406 592.24 473.845C590.537 473.33 589.667 475.321 588.054 475.23C584.771 475.045 582.206 469.321 580.402 467.105C573.124 458.159 563.141 451.487 554.974 443.405C545.752 434.281 537.879 423.226 530.931 412.322C534.072 411.506 537.461 412.862 540.501 413.506C544.196 414.288 547.796 415.234 551.436 416.236C555.449 417.341 559.518 418.1 563.59 418.943C566.629 419.57 570.661 419.759 573.404 421.283C575.798 422.614 577.134 424.043 580.106 424.429C583.129 424.821 586.231 424.491 589.268 424.47C597.48 424.415 605.676 424.262 613.85 423.394C642.732 420.325 673.347 408.109 690.714 383.864C695.438 377.27 699.243 369.964 701.648 362.212C703.525 356.159 706.761 347.63 705.128 341.275Z" fill="#687DAC"/>
<path fill-rule="evenodd" clip-rule="evenodd" d="M434.236 61.9334C441.826 62.0408 448.941 64.2915 456.013 66.8502C462.233 69.1 468.863 71.1815 473.892 75.6722C482.937 83.7502 485.294 97.1255 486.774 108.569C488.62 122.848 482.476 134.829 477.305 147.748C472.468 159.83 463.59 169.618 453.039 177.077C447.51 180.984 441.401 183.342 435.008 185.41C428.515 187.51 422.226 190.323 415.279 190.312C404.729 190.297 391.223 185.286 386.729 174.892C384.683 170.16 386.675 169.31 390.769 171.882C396.709 175.614 402.435 179.641 409.376 181.296C422.836 184.508 438.959 179.532 450.762 172.968C462.561 166.406 470.482 156.548 475.776 144.273C481.117 131.89 483.192 119.687 481.132 106.337C479.387 95.0234 475.914 84.6893 465.719 78.5478C443.71 65.2915 414.058 66.3596 394.485 83.5873C391.801 85.949 389.147 88.2471 386.382 90.5023C384.623 91.9357 382.552 93.6555 382.808 96.1345C383.026 98.2572 387.553 106.442 382.102 103.928C377.684 101.889 375.283 97.9044 369.931 97.4111C364.235 96.8856 357.44 101.262 355.736 106.769C354.11 112.025 357.009 119.215 361.548 122.229C364.36 124.096 367.453 123.807 370.646 123.732C372.23 123.694 376.641 123.18 377.689 124.855C379.545 127.817 372.999 130.931 370.887 131.586C365.747 133.181 359.673 131.304 356.718 126.716C353.714 122.052 351.659 116.653 351.244 111.096C350.849 105.772 352.057 100.382 355.198 96.01C358.539 91.3609 365.349 86.1486 371.455 87.7637C374.104 88.4647 376.233 91.2024 378.834 91.7226C380.475 92.0503 379.784 92.2848 381.144 91.0681C382.007 90.2964 382.823 88.872 383.62 87.9571C388.202 82.6965 392.733 77.0822 398.341 72.8718C408.396 65.322 421.761 61.7561 434.236 61.9334ZM406.43 166.231C407.619 163.443 409.804 168.416 410.449 169.248C411.728 170.893 414.735 172.173 414.605 174.599C414.391 178.604 408.931 177.861 407.111 175.772C405.039 173.393 405.256 168.984 406.43 166.231ZM445.218 147.266C448.164 151.856 444.574 156.81 442.245 160.873C440.018 164.757 437.951 169.148 435.358 172.8C431.056 178.863 421.694 172.304 421.416 166.073C421.203 161.303 424.582 163.379 426.751 165.161C428.983 166.996 430.041 167.452 432.381 165.448C437.088 161.415 439.203 154.67 442.458 149.564C443.103 148.551 444.272 147.942 445.218 147.266ZM453.614 148.742C454.374 150.961 452.781 156.843 457.21 156.255C459.658 155.93 460.18 152.418 461.467 150.885C465.794 145.733 464.467 155.478 463.336 157.918C460.844 163.294 453.869 166.998 450.409 160.178C449.123 157.64 449.128 154.439 449.782 151.711C450.138 150.226 452.213 144.642 453.614 148.742ZM414.116 138.229C413.724 140.819 411.29 145.979 414.262 147.831C416.877 149.462 421.432 145.921 423.446 144.442C425.538 142.905 430.28 138.497 430.466 143.983C430.562 146.779 427.762 150.134 425.765 151.745C421.503 155.181 412.648 158.263 409.507 151.796C407.796 148.273 408.732 143.258 409.863 139.708C410.78 136.831 415.063 131.973 414.116 138.229ZM470.011 124.049C471.746 126.063 475.856 130.575 473.621 133.443C471.008 136.796 466.762 130.645 465.088 128.933C463.58 127.391 460.407 122.999 461.76 120.67C464 116.815 468.488 122.281 470.011 124.049ZM442.752 115.377C448.421 119.07 440.968 121.729 437.739 122.06C433.831 122.458 428.835 122.723 425.245 120.805C420.157 118.087 421.853 113.981 426.784 112.998C431.841 111.991 438.353 112.51 442.752 115.377ZM369.055 103.62C373.224 104.431 377.986 105.487 379.406 110.032C380.871 114.729 378.765 116.288 374.507 115.23C370.567 114.252 364.683 113.267 362.455 109.419C359.794 104.821 365.19 102.869 369.055 103.62Z" fill="#687DAC"/>
<path fill-rule="evenodd" clip-rule="evenodd" d="M139.673 204.548C138.274 209.066 131.193 212.063 127.662 214.809C115.311 224.418 103.242 234.422 92.0765 245.388C86.2809 251.08 81.8942 257.964 76.8685 264.295C75.6422 265.84 73.4699 269.3 71.0649 268.975C68.4262 268.62 67.8928 264.075 67.9769 262.09C68.2651 255.322 74.4464 248.786 78.8546 244.126C83.8133 238.885 89.1147 233.779 94.5289 229.007C100.49 223.754 106.959 219.239 113.551 214.818C120.024 210.477 126.23 205.462 132.962 201.53C136.133 199.679 141.399 198.974 139.673 204.548ZM571.408 161.642C576.563 161.804 581.594 163.495 586.456 165.065C597.151 168.519 607.337 173.31 617.381 178.317C634.99 187.094 651.937 197.714 667.47 209.789C670.717 212.313 674.046 214.357 677.577 216.421C679.837 217.743 683.059 219.356 683.93 222.05C686.142 228.898 674.979 222.025 673.395 221.041L671.167 219.66C638.116 199.176 605.103 179.274 567.719 167.527C565.727 166.901 565.108 165.124 566.152 163.363C567.285 161.455 569.492 161.582 571.408 161.642ZM138.169 175.975C137.93 178.06 135.568 178.534 133.975 179.203C128.032 181.7 121.94 183.829 116.012 186.367C105.011 191.077 94.9079 197.913 83.4249 201.488C80.8007 202.306 80.4135 199.658 81.1161 197.856C81.8985 195.844 84.2487 194.432 85.9484 193.268C90.8517 189.909 96.4126 187.495 101.858 185.161C107.256 182.846 112.814 181.095 118.349 179.155C123.493 177.351 129.464 173.994 134.988 173.746L135.229 173.734C136.987 173.645 138.447 173.526 138.169 175.975ZM580.791 144.297C575.535 142.819 580.501 139.491 583.624 139.725C587.109 139.986 590.477 141.631 593.782 142.624C603.885 145.658 613.251 148.975 622.689 153.684C624.097 154.387 630.298 157.72 626.196 159.196C623.353 160.218 616.714 155.831 614.273 154.779C603.547 150.154 592.021 147.455 580.791 144.297Z" fill="#687DAC"/>
<path fill-rule="evenodd" clip-rule="evenodd" d="M371.266 155.068C371.923 153.14 380.05 132.068 376.869 131.433C373.5 130.759 368.997 142.985 368.02 145.194C364.41 153.352 362.273 162.105 360.598 170.855C359.432 176.948 358.407 183.19 358.816 189.419C359.129 194.206 361.107 194.931 364.365 197.865C364.365 183.324 366.575 168.83 371.266 155.068Z" fill="#687DAC"/>
</svg>
