<svg width="996" height="748" viewBox="0 0 996 748" fill="none" xmlns="http://www.w3.org/2000/svg">
<g opacity="0.3">
<path fill-rule="evenodd" clip-rule="evenodd" d="M340.43 344.894C343.484 375.77 346.538 406.647 349.592 437.523C366.218 428.023 382.846 418.522 399.473 409.021V479.363V497.852C399.473 499.488 398.503 505.107 399.473 506.524C400.296 507.726 406.388 507.76 407.829 507.963C417.23 509.281 426.654 510.453 436.09 511.497C460.962 514.247 487.582 518.188 512.549 515.027C534.251 512.28 555.29 504.551 575.118 495.556C582.079 492.399 588.944 489.02 595.68 485.408C597.108 484.643 602.293 482.835 603.069 481.276C603.704 480.003 602.215 475.529 602.017 474.191C601.179 468.549 600.341 462.907 599.503 457.266L587.802 378.484L609.907 400.588C611.639 402.32 614.927 407.236 617.323 408.004C619.08 408.566 623.431 406.825 625.168 406.49C637.684 404.074 650.201 401.659 662.719 399.245C665.634 398.682 672.206 398.703 674.665 396.939C675.988 395.988 676.05 394.055 676.517 392.223C679.57 380.246 682.623 368.271 685.676 356.295C686.226 354.138 689.294 347.337 688.514 345.164C688.235 344.386 686.881 343.853 686.052 343.345C667.161 331.792 648.268 320.238 629.377 308.684C619.028 302.354 608.68 296.025 598.331 289.696C593.996 287.044 588.671 282.267 583.759 280.784C580.71 279.863 576.274 280.553 573.118 280.462C566.706 280.279 560.294 280.096 553.882 279.913C552.878 279.884 549.362 279.168 548.517 279.76C547.814 280.253 548.105 280.94 547.875 282.114C547.311 284.983 547.307 288.076 547.029 290.988C546.806 293.326 547.249 297.611 546.197 299.726C545.525 301.078 546.377 300.539 545.468 301.193C544.386 301.971 540.931 301.72 539.643 301.87C533.36 302.601 527.076 303.332 520.793 304.062C513.323 304.931 505.77 306.561 498.264 305.81C486.886 304.673 474.618 304.729 463.446 302.329C460.542 301.705 459.496 300.067 457.256 297.828C452.885 293.457 448.558 289.035 444.139 284.71C441.972 282.591 442.9 282.95 440.667 283.754C437.869 284.761 435.031 287.192 432.498 288.737C422.793 294.656 413.089 300.575 403.384 306.494L344.137 342.632C342.901 343.386 341.666 344.139 340.43 344.894Z" fill="#687DAC"/>
<path fill-rule="evenodd" clip-rule="evenodd" d="M907.114 348.732C894.901 395.161 870.337 445.787 820.85 460.586C808.819 464.183 797.114 466.9 784.618 465.53C783.428 465.399 782.433 465.567 781.302 465.588C779.275 465.627 781.026 466.356 778.752 465.653C776.98 465.105 775.321 463.735 773.474 463.129C768.563 461.52 763.328 461.209 758.338 459.909C746.075 456.715 733.438 452.771 721.556 448.366C715.961 446.292 710.818 443.403 705.556 440.624C700.206 437.801 694.537 436.047 689.127 433.458C684.852 431.41 677.527 428.742 674.522 424.902C671.317 420.807 675.751 412.089 677.018 407.735C681.328 392.921 686.461 378.324 689.701 363.215C700.887 376.196 716.412 384.235 732.484 389.42C741.205 392.233 750.176 394.267 759.246 395.54C767.482 396.695 776.366 398.094 784.621 396.453C790.853 395.215 798.675 392.347 803.125 387.584C804.713 385.884 806.619 382.766 805.729 380.297C804.599 377.161 801.308 378.637 799.526 376.297C797.975 374.259 798.218 369.493 797.724 367.011C796.848 362.619 795.647 358.347 794.18 354.118C791.333 345.909 787.785 337.681 786.934 328.946C786.196 321.367 787.919 314.2 791.695 307.624C793.479 304.515 797.96 296.058 802.333 296.408C807.135 296.794 800.659 317.06 800.447 321.195C799.608 337.583 801.803 355.045 810.202 369.409C813.417 374.909 818.068 381.313 824.932 381.994C832.205 382.715 838.071 376.986 841.532 371.189C849.978 357.046 845.72 337.64 841.443 322.816C836.196 304.63 822.501 292.095 813.841 275.762C826.77 277.063 833.693 285.287 840.328 295.721C847.633 307.208 853.319 321 856.123 334.365C857.54 341.118 856.562 347.899 856.571 354.718C856.574 356.984 856.573 365.342 860.263 365.013C864.204 364.661 865.556 355.234 866.136 352.359C867.465 345.763 868.903 339.167 870.057 332.538C872.1 320.811 873.007 308.8 875.453 297.154C875.866 295.185 876.689 289.723 879.633 291.198C881.902 292.333 881.538 300.781 881.621 302.745C881.824 307.584 882.111 312.422 882.15 317.266C882.208 324.445 880.779 331.876 881.48 339.012C881.937 343.674 884.436 348.825 887.534 342.538C890.606 336.302 891.233 328.526 892.945 321.82C894.745 314.779 896.603 307.635 900.422 301.382C901.481 299.647 902.619 296.893 904.974 297.709C906.684 298.303 907.947 302.362 908.476 303.796C910.862 310.271 910.457 317.47 910.306 324.25C910.122 332.556 909.232 340.678 907.114 348.732ZM668.959 360.78C668.307 360.569 665.534 360.306 664.847 360.246C664.041 360.175 664.956 358.688 663.005 359.112C663.382 360.046 664.05 360.669 665.012 360.982C662.079 361.976 659.916 359.523 657.911 359.206C655.993 358.905 655.911 359.206 654.017 361.235C651.966 358.73 652.35 360.293 650.663 360.294C650.05 360.295 650.023 361.223 649.024 361.112C648.152 361.014 648.061 359.69 647.545 359.534C644.746 358.685 641.866 362.953 638.692 359.251C637.923 363.103 629.11 358.278 625.719 358.956C622.165 359.663 623.699 360.94 620.826 358.759C618.089 356.681 618.852 358.061 615.669 359.761C615.743 359.722 613.872 360.987 614.046 361.008C611.842 360.75 611.967 358.468 609.176 358.589C606.223 358.718 604.961 361.036 602.258 358.183C601.67 360.32 601.549 359.399 600.163 359.938C599.401 360.119 598.734 359.918 598.162 359.337C597.989 359.925 597.609 360.285 597.02 360.417C595.511 360.553 592.678 360.763 591.308 360.036C589.252 358.943 590.905 358.524 589.478 357.296C588.839 360.682 587.438 359.962 584.484 360.279C582.23 360.52 581.734 359.828 579.581 359.491C577.46 359.16 574.72 359.984 572.652 360.335C571.798 360.48 570.654 361.076 569.786 360.867C569.002 360.678 568.666 360.069 568.198 359.91C567.631 359.719 567.752 359.221 566.77 358.98C566.093 358.815 564.881 359.45 564.205 359.56C559.383 360.344 554.752 360.352 550.152 358.453C552.418 362.439 544.857 360.287 543.509 358.636C541.824 361.279 539.786 359.414 536.39 359.62C533.119 359.818 528.201 360.821 526.875 356.743C526.616 357.571 524.76 359.978 524.021 360.345C521.878 361.409 521.622 359.835 519.629 359.194C516.916 358.321 517.482 359.978 515.8 360.314C512.961 360.883 511.426 358.881 508.916 357.817C508.81 359.472 508.755 360.49 507.327 361.52C506.061 356.906 501.546 361.897 502.321 355.731C500.603 356.851 498.185 357.712 497.696 359.978C500.569 359.186 498.002 361.067 497.882 361.129C497.502 361.328 496.219 359.525 495.921 359.271C495.84 360.121 495.759 360.972 495.678 361.823C494.533 361.25 493.459 360.223 492.53 359.709C491.693 359.246 492.892 358.282 491.478 358.216C490.732 358.18 489.955 359.797 489.172 359.935C487.976 360.145 488.551 358.426 488.05 358.484C487.287 358.572 486.045 359.689 485.468 359.668C483.576 359.597 484.856 358.716 483.414 358.312C480.834 357.589 481 359.278 479.146 359.887C474.905 361.281 475.331 354.865 471.016 359.144C469.983 360.168 469.319 361.749 467.904 361.661C464.975 361.477 466.004 358.001 466.599 356.298C467.215 356.602 455.898 362.423 455.988 362.195C456.059 360.799 457.839 359.723 456.249 358.483C454.948 361.277 453.58 361.326 450.58 361.846C449.122 362.099 448.835 362.437 447.276 361.83C446.282 361.444 445.614 359.857 444.626 359.77C444.759 359.782 442.945 361.164 442.669 361.288C441.031 362.027 439.996 361.189 438.405 361.493C437.049 361.752 436.515 362.907 435.166 362.591C433.365 362.17 434.423 360.016 431.946 360.617C431.098 360.822 430.589 362.456 429.254 362.794C427.175 363.321 424.625 362.338 422.427 362.851C420.682 363.259 419.387 363.432 417.861 363.516C416.629 363.586 417.135 362.626 414.866 363.759L413.904 361.33C412.768 362.353 411.632 363.375 410.496 364.398C410.281 363.481 410.144 362.553 410.086 361.613C408.392 363.312 406.259 363.602 403.982 363.755C401.515 363.92 399.678 364.459 397.279 364.911C396.52 365.052 394.566 365.28 393.942 365.015C394.034 365.053 392.775 364.529 393.155 364.629C392.991 364.295 392.84 363.957 392.699 363.612C392.488 362.653 391.799 362.611 390.636 363.486C390.033 363.393 388.866 362.602 388.266 362.797C386.719 363.299 386.929 364.502 385.387 364.325C384.387 364.21 383.876 362.73 382.834 362.629C381.24 362.476 379.858 364.263 378.421 364.652C382.789 363.465 372.756 364.386 375.875 364.468C373.83 364.415 371.707 364.313 369.817 365.231C368.773 364.516 370.04 363.079 368.985 362.487C368.028 361.95 367.955 363.367 367.843 363.399C368.446 363.227 368.145 364.433 367.54 364.647C365.658 365.316 364.152 363.617 364.055 361.932C362.455 364.342 362.007 363.373 359.654 363.522C357.334 363.669 355.334 364.887 353.013 364.865C348.423 364.821 345.309 363.223 343.777 359.12C348.668 359.716 353.59 356.568 358.372 357.309C359.944 357.553 360.926 358.735 362.303 358.525C364 358.267 365.184 356.414 367.359 356.214C372.158 355.774 376.888 356.202 381.719 355.466C387.49 354.586 393.512 354.064 399.338 354.493C403.84 354.824 407.486 353.1 412.051 352.769C417.954 352.338 423.907 352.262 429.82 351.952C435.895 351.633 442.433 350.662 448.492 350.973C450.384 351.07 452.012 351.255 453.889 351.142C454.683 351.094 455.435 350.554 456.268 350.635C457.352 350.74 457.818 351.852 458.944 351.813C460.857 351.748 462.901 350.17 465.174 350.127C468.912 350.057 472.634 350.065 476.381 349.852C479.681 349.664 483.215 348.893 486.5 348.935C488.816 348.963 489.388 350.94 490.738 351.144C493.166 351.51 505.447 344.513 506.508 350.793C512.902 346.412 521.476 350.122 528.592 349.299C537.735 348.241 547.044 349.183 556.248 348.807C565.614 348.424 575.249 348.779 584.578 349.663C588.443 350.029 592.176 350.373 596.051 350.151C597.778 350.052 599.775 349.61 601.503 350.009C601.921 350.106 605.125 352.345 604.727 352.409C606.477 350.836 605.293 350.605 608.372 350.525C610.744 350.463 612.989 350.976 615.348 351.115C619.584 351.366 623.851 350.779 628.078 350.908C631.606 351.017 635.056 351.538 638.603 351.563C642.427 351.591 646.942 351.699 649.709 354.786C649.417 353.817 649.126 352.847 648.833 351.878C653.101 352.213 657.318 353.738 661.634 353.025C660.542 354.072 659.434 354.927 659.017 356.463C661.344 356.167 662.919 354.541 665.369 354.528C667.426 354.515 667.854 355.549 670.026 354.213C670.294 355.85 670.561 357.486 670.828 359.121C673.837 358.412 671.863 356.166 672.083 354.141C674.528 354.876 676.598 354.032 675.635 357.554C674.891 360.269 671.506 361.608 668.959 360.78ZM664.732 391.028C663.683 393.979 654.609 392.293 652.463 391.98C649.691 391.579 646.519 390.941 643.966 390.625C643.66 390.216 643.293 389.869 642.865 389.583C642.544 390.031 642.138 390.349 641.647 390.536C640.474 390.793 640.47 392.005 638.93 391.737C638.859 393.53 640.102 392.511 641.055 393.162C638.654 394.773 639.752 392.918 638.405 392.947C638.071 392.473 637.606 392.288 637.01 392.39C636.251 392.586 635.551 392.912 634.911 393.366C634.311 394 633.797 394.033 633.369 393.465C632.958 393.052 632.458 392.797 631.867 392.7C629.501 393.085 628.84 394.136 626.176 393.964C622.37 393.719 618.252 394.723 614.506 394.194C612.184 393.867 608.304 390.214 607.25 393.775C605.645 391.135 603.088 389.339 601.552 386.642C608.71 386.227 615.867 385.734 623.033 385.475C629.307 385.248 636.17 385.955 642.032 385.659C647.524 385.382 653.34 384.774 658.947 384.272C664.891 383.741 666.858 385.046 664.732 391.028ZM477.957 391.463C480.557 392.183 483.032 390.55 485.553 391.067C486.387 391.237 488.112 392.757 488.492 392.786C489.186 392.842 491.227 391.35 492.102 391.15C497.64 389.888 504.348 390.023 509.884 390.798C512.818 391.208 513.268 389.864 515.829 389.211C518.49 388.532 522.273 389.055 525.076 388.867C531.67 388.426 538.261 388.74 544.809 388.257C551.532 387.762 558.222 387.493 564.949 387.147C569.53 386.911 580.541 384.293 584.338 387.699C587.47 390.508 583.436 395.383 580.303 396.496C577.961 397.327 576.839 395.576 575.1 395.743C573.12 395.933 573.81 398.276 572.042 396.104C570.948 398.264 564.063 397.343 562.091 397.486C557.792 397.797 554.154 398.661 551.228 394.645C551.427 395.803 551.625 396.961 551.823 398.119C547.943 396.042 543.778 396.707 540.41 397.432C538.742 397.79 533.622 400.266 531.815 399.198C530.572 398.464 532.763 397.207 530.665 396.58C529.565 396.251 527.668 398.079 526.325 397.988C522.607 397.732 523.662 395.228 520.011 398.414C518.773 397.343 518.362 395.522 518.525 393.96C515.873 396.226 516.094 400.002 511.352 399.311C509.585 399.053 509.26 397.248 508.338 396.915C506.376 396.206 506.153 397.482 504.453 398.491C503.811 398.872 503.028 399.485 502.272 399.561C500.72 399.717 500.473 399.002 500.261 399.026C499.228 399.14 497.927 399.666 496.701 399.29C495.601 398.953 495.279 397.009 493.341 397.463C491.486 397.899 491.471 399.161 491.808 401.049C489.978 400.859 488.872 399.839 487.504 398.734C486.122 401.961 483.214 399.288 481.606 402.011C479.51 399.505 478.166 400.195 475.566 397.748C475.694 398.769 475.821 399.79 475.949 400.811C473.92 400.419 473.017 398.987 471.287 400.882C469.607 397.749 464.513 402.214 461.897 399.187C460.731 403.02 453.016 402.103 449.757 402.17C446.87 402.229 444.732 401.992 441.91 402.663C439.417 403.257 435.961 403.872 433.616 403.601C432.084 403.423 430.409 403.142 428.5 403.35C425.748 403.649 423.371 405.075 420.52 404.401C416.228 403.385 413.597 397.739 418.378 395.259C421.65 393.562 427.544 394.19 431.145 393.877C437.112 393.358 443.8 392.269 449.775 392.764C454.436 393.15 458.684 392.037 463.44 391.566C467.02 391.212 472.888 390.575 475.223 394.128C476.119 393.09 476.027 390.929 477.957 391.463ZM412.631 440.099C411.99 436.903 439.272 435.144 441.98 434.935C447.665 434.496 453.366 434.183 459.065 434.038C463.749 433.919 468.121 434.814 472.807 434.094C477.183 433.422 482.464 432.044 486.273 435.146C486.833 430.903 503.255 432.97 506.38 432.982C519.98 433.031 532.994 433.063 546.15 432.219C553.668 431.738 561.652 431.089 569.171 431.465C572.563 431.636 575.294 432.541 578.667 431.755C580.867 431.243 583.237 430.177 585.341 431.684C587.804 433.448 588.856 439.438 587.16 441.938C585.924 443.76 584.831 443.558 582.857 443.243C579.823 442.759 577.568 442.057 574.474 443.292C574.976 443.091 572.401 443.666 572.615 443.65C569.11 443.912 564.303 446.363 561.284 443.538C562.493 443.75 564.252 441.587 562.726 441.409C561.581 441.276 560.854 442.505 559.96 442.917C556.903 444.326 555.338 443.885 553.511 440.93C549.829 444.122 549.432 443.239 547.816 439.309C546.571 440.268 546.304 442.539 545.324 443.284C545.178 443.395 545.781 444.774 545.074 444.717C544.417 444.664 544.203 443.587 543.698 443.502C543.375 443.447 543.208 442.502 542.899 442.445C542.565 442.383 542.221 442.986 541.842 442.968C540.83 442.921 537.936 445.077 538.974 442.05C537.441 444.004 536.781 442.758 536.228 440.981C534.457 442.329 532.688 443.676 530.917 445.023C530.094 442.732 528.677 443.356 526.895 444.156C527.432 442.565 527.095 441.059 525.748 442.166C524.968 442.806 524.444 444.84 523.645 445.704C520.413 442.427 519.238 443.325 514.773 443.752C513.068 443.914 510.95 444.229 509.428 443.198C508.089 442.292 507.332 438.967 505.043 441.654C505.552 441.056 504.754 445.645 504.612 446.374C503.603 445.693 502.745 444.855 502.039 443.861C500.722 446.472 497.263 444.129 494.43 444.663C489.968 445.503 485.366 446.918 481.426 443.594C481.147 444.667 477.918 446.034 477.914 446.076C478.106 444.175 479.303 444.843 476.857 444.482C476.407 444.416 475.897 445.227 475.471 445.316C474.013 445.618 472.31 445.331 470.841 445.289C464.728 445.113 459.132 446.469 453.095 446.961C451.061 447.126 448.647 447.452 446.736 446.683C444.769 445.891 444.822 444.992 442.831 445.502C443.461 445.341 441.587 447.313 441.689 447.238C441.421 447.433 440.304 446.471 439.907 446.544C439.791 446.964 439.676 447.384 439.56 447.804C439.08 447.745 438.6 447.686 438.12 447.627C436.808 447.803 435.624 446.473 434.39 446.428C434.617 446.437 431.062 447.762 431.224 447.842C428.743 446.603 429.455 446.962 426.307 447.717C423.331 448.43 420.368 448.264 417.315 448.708C408.433 450 413.725 445.543 412.631 440.099ZM404.788 484.561C403.118 482.189 407.561 481.369 408.98 481.16C411.315 480.815 414.411 481.501 415.966 481.129C418.335 480.565 420.621 479.219 423.288 478.854C426.653 478.393 430.045 478.318 433.424 478.029C434.549 477.933 435.943 477.545 437.038 477.61C438.669 477.708 439.347 478.572 440.663 478.578C442.906 478.589 445.673 477.172 447.971 476.911C450.915 476.577 453.888 476.421 456.846 476.274C463.078 475.964 469.246 476.092 475.474 476.085C478.315 476.081 485.881 473.129 487.297 476.439C489.267 473.931 494.319 474.273 497.135 474.2C502.095 474.073 507.004 473.593 511.96 473.363C516.204 473.165 520.947 474.075 525.114 473.437C527.411 473.086 528.172 472.35 530.776 472.682C532.711 472.928 535.661 471.904 537.323 472.357C537.236 472.334 539.395 473.673 538.722 473.716C539.463 473.668 539.42 474.187 540.238 473.955C541.312 473.652 540.819 472.3 543.045 471.819C546.517 471.07 551.148 471.938 554.756 471.745C558.256 471.558 561.75 471.478 565.254 471.494C566.866 471.501 568.861 471.116 570.43 471.431C571.199 471.585 572.833 472.59 573.484 472.489C575.331 472.2 576.271 470.916 578.767 470.995C581.596 471.085 584.143 471.046 586.956 470.83C589.68 470.622 590.117 470.232 591.468 472.502C592.806 474.753 593.175 477.685 590.712 479.215C592.312 479.11 594.28 481.255 592.394 482.442C591.23 483.177 588.893 481.52 587.499 481.639C585.78 481.787 584.431 482.697 582.561 482.753C580.594 482.813 578.598 483.309 576.658 483.347C574.639 483.387 573.112 482.483 571.196 482.867C569.51 483.207 569.332 484.59 567.302 483.375C566.294 482.771 566.123 480.533 564.747 480.512C562.902 480.484 563.638 482.87 562.578 483.974C562.293 480.563 559.663 486.208 558.617 482.067C557.653 483.442 554.084 485.366 552.356 484.261C550.779 483.254 551.302 480.975 550.646 479.334C549.553 482.284 546.621 485.345 546.887 479.974C545.462 481.729 541.613 481.452 542.578 484.524C541.418 484.502 541.143 482.843 540.166 482.718C539.324 482.609 538.654 483.258 538.525 483.248C538.987 483.287 537.145 483.901 537.116 483.907C538.363 483.653 533.517 483.22 534.342 483.228C533.218 483.218 531.842 484.141 530.527 484.137C529.329 484.134 528.138 483.662 526.956 483.527C523.89 483.177 524.528 483.851 522.604 484.815C521.891 485.172 521.712 485.777 520.699 485.701C519.953 485.645 519.673 484.669 519.588 484.661C518.538 484.555 519.314 484.202 517.683 484.365C517.495 484.687 517.309 485.009 517.122 485.331C516.533 486.086 515.769 486.274 514.831 485.898C512.417 486.416 504.412 488.663 505.196 484.503C503.969 485.102 502.743 485.703 501.516 486.304C500.99 482.949 494.326 487.398 492.837 487.622C490.928 487.909 490.752 487.175 488.946 486.784C488.62 486.714 487.968 487.789 487.205 487.635C485.224 487.236 484.871 487.038 484.531 484.884C483.119 487.528 481.944 486.346 479.382 486.78C478.816 486.877 478.454 487.994 477.64 487.801C477.053 487.663 477.037 486.59 476.633 486.451C476.269 486.325 476.324 485.479 475.788 485.358C475.173 485.22 473.077 486.941 472.476 487.206C471.12 487.805 468.892 488.795 467.569 488.498C465.932 488.132 466.66 486.917 464.347 487.054C460.699 487.268 459.177 490.377 456.907 485.478C455.882 487.44 456.012 487.973 454.367 488.621C453.151 489.099 450.072 488.599 448.471 488.54C441.634 488.287 434.911 490.62 428.131 490.009C425.151 489.741 422.638 489.144 419.63 489.631C416.47 490.146 413.379 490.9 410.173 491.204C408.543 491.358 405.137 491.828 404.337 489.741C403.633 487.903 406.259 486.651 404.788 484.561ZM418.197 559.885C409.328 565.826 401.983 573.938 393.841 580.807C385.677 587.694 379.199 595.35 371.857 602.977C365.068 610.026 358.832 616.696 350.625 622.023C345.432 625.395 340.8 629.545 335.465 632.724C331.47 635.105 325.417 638.237 327.366 630.955C329.364 623.491 333.053 615.948 336.256 608.978C340.809 599.07 345.398 589.254 350.324 579.534C352.176 575.882 353.212 572.247 356.148 569.338C359.343 566.171 361.58 562.038 365.079 559.047C379.797 546.464 401.977 556.185 418.197 559.885ZM446.016 564.151C441.993 566.262 437.491 566.786 433.228 568.182C429.594 569.371 426.216 571.487 422.309 571.644C425.866 568.97 428.922 565.336 432.931 563.306C437.442 561.022 441.536 562.685 446.016 564.151ZM622.583 581.748C607.787 576.748 594.01 569.382 579.598 563.453C577.11 562.429 557.653 556.013 558.048 552.959C571.683 550.458 585.725 546.165 599.393 550.845C611.826 555.103 621.939 565.315 631.565 573.862C634.076 576.091 649.607 586.247 648.217 589.482C647.255 591.724 639.771 591.112 638.004 590.653C635.721 590.058 634.406 588.671 632.616 587.146C629.622 584.599 626.31 583.006 622.583 581.748ZM595.268 498.222C597.515 496.152 598.86 493.01 601.007 491.098C603.766 488.642 608.217 489.839 611.232 491.115C620.28 494.943 628.014 501.379 637.006 505.374C646.971 509.801 655.598 515.717 664.586 521.814C672.802 527.386 681.686 532 690.071 537.319C698.617 542.739 708.183 546.262 716.846 551.49C725.662 556.812 734.444 562.155 742.916 568.018C758.023 578.474 773.753 589.211 784.93 604.077C790.675 611.719 796.052 620.386 800.267 628.966C804.099 636.767 808.255 647.595 803.29 655.709C798.521 663.501 790.393 669.64 783.513 675.454C780.907 677.655 778.428 680.33 775.051 681.285C770.944 682.444 766.151 682.124 761.926 682.467C739.339 684.301 718.296 682.57 696.036 678.524C674.572 674.625 653.02 672.441 631.392 669.729C619.19 668.2 606.991 666.419 594.955 663.872C589.81 662.784 584.575 661.528 579.541 660.045C575.145 658.75 571.447 655.898 566.927 654.767C547.741 649.97 525.79 648.136 506.796 640.067C523.604 633.072 541.467 628.847 558.693 623.035C576.824 616.918 594.532 611.785 613.643 610.047C623.477 609.152 632.278 606.638 641.737 604.006C650.752 601.498 660.163 600.729 669.423 599.604C673.541 599.105 685.292 599.853 686.657 594.463C688.689 586.439 677.143 585.513 672.22 586.232C665.237 587.251 659.48 588.996 654.136 583.26C648.679 577.402 643.377 571.405 637.822 565.622C627.521 554.898 616.904 542.495 602.343 537.684C584.579 531.814 563.98 537.386 546.256 540.723C527.535 544.249 508.844 547.624 490.474 552.749C482.866 554.87 473.056 559.545 465.16 558.795C457.379 558.053 448.566 556.778 441.047 554.531C437.644 553.515 434.847 551.631 431.803 549.874C427.844 547.589 423.507 546.126 419.306 544.35C410.81 540.759 402.528 537.452 393.363 536.04C385.644 534.852 377.447 534.147 369.967 536.856C362.629 539.515 356.127 544.927 351.007 550.709C345.445 556.99 340.848 564.029 336.29 571.047C334.102 574.415 331.431 577.355 329.164 580.648C327.261 583.413 326.15 586.486 324.137 589.174C319.63 595.187 316.571 602.879 313.84 609.874C310.806 617.644 307.435 626.885 308.16 635.337C308.433 638.531 308.719 642.763 309.953 645.725C311.523 649.493 313.762 649.397 316.988 650.818C322.531 653.259 324.086 660.007 331.249 658.692C337.968 657.458 343.795 651.914 348.697 647.495C355.087 641.736 361.202 635.664 367.316 629.614C373.589 623.405 379.772 616.519 384.763 609.214C386.728 606.339 388.259 603.091 390.581 600.473C393.538 597.137 396.858 596.736 400.873 595.408C435.985 583.792 471.266 572.587 507.473 564.917C516.148 563.079 524.893 560.708 533.415 558.262C542.453 555.668 547.133 558.41 554.592 563.347C570.175 573.665 588.594 580.932 605.947 587.663C611.411 589.782 620.109 589.917 624.38 594.097C599.063 597.961 574.936 605.397 550.517 612.802C538.477 616.452 526.299 619.617 514.214 623.107C502.125 626.6 490.495 631.125 478.572 635.062C466.705 638.98 454.164 640.579 442.182 644.193C429.951 647.882 417.771 650.42 405.217 652.662C392.54 654.928 379.951 657.541 367.231 659.569C361.407 660.497 355.584 661.46 349.825 662.737C344.189 663.988 338.744 666.981 333.08 667.674C307.786 670.773 282.989 677.678 257.793 681.58C238.981 684.495 206.252 688.56 194.053 669.66C181.785 650.654 196.836 628.483 210.264 614.893C218.609 606.447 227.987 599.014 237.826 592.401C248.356 585.324 258.486 577.682 269.018 570.615C292.852 554.623 318.696 541.579 344.303 528.729C356.594 522.561 368.468 515.946 380.425 509.177C386.358 505.816 389.643 511.238 394.333 514.922C398.022 517.821 404.798 524.966 409.959 521.663C410.158 522.852 410.357 524.042 410.556 525.232C412.067 524.541 413.58 523.852 415.092 523.161C416.108 525.829 415.989 527.485 418.826 528.886C420.568 529.747 424.286 530.782 425.948 529.266C426.286 530.32 426.625 531.373 426.964 532.425C428.416 532.314 428.697 528.154 428.97 527.18C431.459 530.82 434.901 533.862 439.275 534.89C439.297 534.652 438.564 531.662 438.596 531.644C439.979 530.795 441.725 534.429 442.459 535.207C444.892 537.785 446.343 537.385 449.03 535.304C449.225 535.516 450.135 537.893 450.267 537.85C450.849 537.665 451.953 535.559 452.074 535.367C451.906 538.138 457.247 538.696 459.133 538.101C458.71 537.289 458.286 536.478 457.864 535.666C464.434 534.788 467.013 541.777 473.319 541.422C477.981 541.159 474.242 540.139 476.881 538.14C479.185 536.392 479.596 540.213 479.822 540.092C480.262 539.631 480.602 539.102 480.845 538.503C481.697 541.775 488.489 544.711 487.787 539.33C490.458 540.4 492.355 542.176 495.312 542.551C498.905 543.007 502.744 542.243 506.329 541.945C514.054 541.302 521.336 539.724 528.3 536.18C532.429 534.079 536.823 532.172 540.704 529.638C543.951 527.516 550.113 521.075 554.437 523.849C553.33 520.578 558.544 523.609 558.71 519.395C559.547 520.028 560.384 520.659 561.222 521.292C561.724 520.189 561.584 518.452 562.256 517.491C563.18 516.171 563.631 516.948 564.418 516.206C565.3 515.375 566.069 513.151 567.125 512.517C568.214 511.865 569.495 512.643 570.666 512.073C572.449 511.205 580.121 502.735 578.823 509.993C582.121 508.87 579.578 507.844 579.99 505.643C580.817 501.232 582.831 504.407 584.838 504.791C588.123 505.422 588.057 502.702 589.89 500.725C591.562 498.92 594.707 498.112 593.624 494.976C594.861 495.645 595.124 496.952 595.268 498.222ZM397.219 404.013C394.63 406.9 392.692 405.665 389.815 405.242C389.506 404.209 388.98 404.066 388.237 404.813C387.384 405.303 386.467 405.627 385.485 405.781C383.126 406.363 380.675 406.115 378.366 406.998C378.432 406.223 379.244 404.847 378.724 404.061C376.297 405.742 374.792 406.812 371.811 406.844C369.395 406.869 365.156 405.022 363.15 407.23C363.088 406.37 363.026 405.511 362.965 404.651C361.983 405.141 361.128 405.797 360.401 406.619C360.264 405.345 360.187 404.382 359.346 403.352C357.751 406.639 356.003 406.716 352.902 405.46C353.337 405.636 349.799 403.56 349.934 404.135C348.816 399.417 366.471 399.806 368.325 399.62C372.953 399.151 377.582 398.88 382.217 398.453C386.614 398.048 389.895 397.361 392.938 401.034C391.582 395.729 404.41 395.992 397.219 404.013ZM194.796 321.737C195.282 329.758 197.064 338.283 193.95 346.003C191.446 352.208 186.451 359.216 181.071 363.265C170.054 371.556 160.716 361.411 159.182 350.261C157.584 338.631 160.752 324.421 170.753 317.25C176.729 312.966 182.515 313.263 189.395 314.671C191.011 315.003 193.634 314.875 194.557 316.483C194.774 316.859 194.58 321.73 194.796 321.737ZM341.118 428.6C339.215 429.562 337.224 430.125 335.547 431.434C334.964 431.889 334.765 432.924 334.147 433.307C333.021 434.003 331.413 433.541 330.239 434.116C328.298 435.066 326.906 436.426 324.599 437.301C321.172 438.602 318.167 440.385 314.929 442.076C309.532 444.893 303.741 447.312 298.099 449.606C295.251 450.764 287.375 453.02 287.648 457.195C287.011 457.367 286.36 455.972 285.03 456.083C283.203 456.235 280.791 458.35 278.896 458.87C275.35 459.842 272.605 459.928 272.605 464.455C271.476 463.687 271.189 461.808 269.688 461.559C267.998 461.278 267.286 463.104 265.934 463.672C264.342 464.341 262.362 463.7 260.785 464.412C260.095 465.142 259.329 465.78 258.485 466.323C257.628 466.422 256.774 466.397 255.924 466.244C252.577 466.955 249.496 468.216 246.141 468.87C242.87 469.51 240.631 469.743 242.006 473.615C238.508 474.3 237.653 470.583 233.706 471.943C228.868 473.608 224.347 474.809 219.296 475.825C216.721 476.343 214.03 477.5 211.435 477.771C209.584 477.965 207.857 477.302 206.034 477.508C203.838 477.755 202.072 478.774 199.799 478.812C197.643 478.85 195.38 478.462 193.262 478.081C193.561 478.935 193.936 479.754 194.386 480.539C192.921 480.232 192.246 478.469 191.004 478.208C189.702 477.935 188.535 479.28 187.451 478.982C186.989 478.855 187.296 477.429 186.47 477.156C185.717 476.909 185.399 477.201 184.653 477.084C184.403 477.045 181.28 476.876 180.782 477.139C179.912 477.601 180.792 478.466 180.619 478.595C177.682 480.771 177.646 479.596 176.337 477.323C174.414 473.985 172.095 476.091 168.6 475.507C164.705 474.856 161.637 476.577 157.803 476.332C153.668 476.068 148.809 472.97 145.153 471.16C137.258 467.254 129.56 463.556 122.93 457.639C109.97 446.071 99.4262 431.846 93.2095 415.56C86.5299 398.064 85.2642 379.816 85.8004 361.255C86.123 350.091 87.0153 338.935 88.7724 327.902C89.9822 320.313 90.2355 306.827 98.7801 303.371C100.249 321.14 95.6138 339.247 98.537 356.901C99.4171 362.219 101.564 369.304 105.627 373.242C111.642 379.072 113.049 370.645 113.593 365.99C114.606 357.345 116.487 348.747 117.819 340.143C119.15 331.542 120.09 322.845 121.941 314.335C122.615 311.232 128.056 288.508 132.05 289.584C131.242 306.115 129.096 322.361 129.012 338.953C128.978 345.608 128.383 352.637 129.343 359.248C129.836 362.65 132.93 372.633 138.251 371.801C143.176 371.031 137.762 363.999 137.302 361.287C136.084 354.109 137.637 345.179 138.772 338.054C140.921 324.571 145.715 310.761 153.552 299.494C160.57 289.405 171.377 279.8 184.395 281.579C189.958 282.34 194.297 283.723 197.092 288.809C199.285 292.801 207.923 297.336 202.917 302.333C198.36 306.882 190.989 303.241 185.923 302.156C179.721 300.828 173.074 302.426 167.887 306.065C158.987 312.308 153.915 323.469 152.26 333.937C150.028 348.051 155.993 384.995 177.961 376.716C192.554 371.214 203.546 351.428 202.321 336.279C201.829 330.215 199.462 318.703 207.84 317.065C218.575 314.968 220.091 326.817 219.004 334.516C217.424 345.716 211.512 356.131 204.749 364.986C198.855 372.704 192 377.53 184.907 383.904C182.807 385.791 177.451 390.033 178.35 393.543C179.336 397.39 187.754 398.483 191.125 399.116C207.799 402.241 226.602 399.366 243.248 397.184C277.46 392.698 311.222 381.648 339.276 361.334C340.409 373.903 341.837 386.43 342.363 399.045C342.619 405.169 342.684 411.381 343.383 417.47C343.813 421.217 345.369 426.45 341.118 428.6ZM246.254 472.397C244.911 473.1 246.363 468.845 245.99 470.253C247.996 470.973 248.085 471.688 246.254 472.397ZM388.176 320.287C390.308 317.933 396.133 312.335 397.982 317.648C398.67 315.383 398.759 312.029 401.415 315.087C402.472 311.331 414.135 311.683 417.023 311.516C426.273 310.987 435.561 310.703 444.778 309.783C463.718 307.893 482.988 308.868 501.997 308.806C506.114 308.793 510.22 308.569 514.306 309.167C518.249 309.745 522.393 311.363 526.412 310.772C529.986 310.245 532.329 309.259 536.007 309.681C540.409 310.186 544.681 310.545 549.121 310.529C568.761 310.458 588.391 311.254 608.035 311.285C611.864 311.291 616.45 310.542 620.042 312.17C621.373 312.774 622.827 314.782 623.843 315.003C625.008 315.255 624.316 313.435 625.875 314.257C627.964 315.357 626.347 318.739 624.967 319.276C625.794 318.954 623.476 318.638 623.708 318.626C622.608 318.685 621.67 319.53 620.488 319.477C618.69 319.398 617.184 318.3 615.734 317.333C615.71 317.727 616.506 320.36 615.597 320.493C614.814 320.608 614.081 318.012 614.002 317.408C609.608 321.289 604.952 319.126 599.498 319.618C595.631 319.966 587.566 322.55 584.867 318.507C584.755 319.367 584.41 320.119 583.835 320.765C583.063 321.941 582.397 321.841 581.833 320.462C581.643 320.471 579.764 320.88 579.727 320.877C578.404 320.772 576.69 320.297 575.345 320.182C573.263 320.004 573.647 321.521 571.988 321.545C571.083 321.559 568.773 320.249 567.194 320.167C564.459 320.025 561.665 321.186 558.967 320.834C557.109 320.593 555.43 319.079 553.608 319.02C551.337 318.944 550.6 320.678 548.802 318.242C548.432 318.143 548.204 319.576 548.058 319.6C548.093 319.594 546.345 319.853 546.139 319.934C545.78 320.071 544.383 320.712 543.957 320.719C543.039 320.736 542.54 320.078 541.566 320.062C539.956 320.035 534.814 321.455 534.957 318.471C529.209 320.604 524.304 319.773 518.404 320.276C515.697 320.509 513.996 320.146 511.421 319.648C508.196 319.025 506.054 319.808 502.837 319.966C499.746 320.118 498.771 318.809 496.162 317.626C495.133 317.16 494.453 316.545 493.19 316.804C492.471 316.952 492.983 318.166 492.77 318.249C491.661 318.677 490.887 318.223 489.367 318.327C486.56 318.519 485.442 320.868 482.557 318.663C483.515 318.546 484.475 318.428 485.434 318.312C482.675 317.141 479.033 316.543 479.702 320.808C477.349 320.477 479.385 318.873 478.229 318.299C477.072 317.725 475.777 318.685 474.32 319.16C470.473 320.409 467.265 319.789 463.253 319.564C458.694 319.309 448.031 323.034 444.767 318.199C444.669 319.218 443.576 322.056 442.122 321.923C441.648 321.879 442.97 318.866 443.119 318.546C442.37 320.143 438.954 320.446 437.27 321.274C437.459 320.416 437.647 319.558 437.836 318.702C436.273 320.368 435.513 319.351 433.673 319.908C432.869 320.152 431.705 321.813 431.018 321.913C430.217 320.982 429.21 320.582 427.997 320.712C427.19 320.51 426.383 320.47 425.577 320.594C422.349 320.828 419.405 322.625 416.194 321.402C413.415 320.341 412.339 317.614 410.682 321.952C410.245 321.181 409.81 320.41 409.373 319.639C408.836 320.476 408.298 321.313 407.76 322.149C405.656 320.77 405.527 319.971 403.107 320.478C402.539 320.705 401.956 320.673 401.36 320.383C401.217 320.808 401.075 321.232 400.932 321.657C400.875 322.725 400.559 323.077 399.983 322.714C399.499 322.54 399.061 322.276 398.672 321.921C397.07 322.043 395.025 322.465 393.307 322.232C392.643 322.143 388.485 319.945 388.176 320.287ZM437.176 291.571C437.365 291.861 437.554 292.151 437.742 292.44C435.142 293.815 434.531 293.026 434.262 290.266C435.532 290.29 435.749 292.527 437.176 291.571ZM438.787 289.952C440.038 290.504 441.474 291.591 442.653 290.135C443.447 292.446 437.552 295.599 438.787 289.952ZM446.872 290.972C449.5 292.751 443.196 291.32 443.206 291.324C444.339 290.276 445.56 290.159 446.872 290.972ZM469.476 281.054C470.378 285.607 472.864 285.478 476.876 283.361C482.728 280.273 483.716 275.217 484.124 269.179C484.516 263.391 485.223 261.15 491.184 262.358C495.345 263.202 498.865 262.493 503.06 262.377C507.537 262.253 509.114 262.938 509.474 267.55C509.835 272.169 510.655 275.676 514.002 279.191C517.406 282.764 521.944 284.898 526.366 286.898C528.64 287.925 530.775 289.03 533.291 289.253C534.266 289.34 539.34 288.697 539.447 290.304C539.525 291.513 532.499 294.922 531.753 295.328C528.494 297.103 525.244 298.695 521.684 299.771C513.495 302.245 504.811 302.391 496.328 302.241C482.651 302 463.748 296.207 455.57 284.057C460.205 283.056 464.841 282.054 469.476 281.054ZM468.249 241.618C466.085 239.799 464.684 237.052 462.886 234.899C461.98 233.812 461.315 233.467 460.453 232.923C459.544 232.351 459.032 233.161 458.274 231.815C456.316 228.338 462.359 223.445 455.949 222.106C453.781 221.652 448.562 223.373 447.929 220.262C447.033 215.863 455.419 215.575 457.392 213.342C461.315 208.903 458.653 201.377 461.042 196.255C463.304 191.404 469.143 190.542 473.751 189.084C480.172 187.055 486.67 185.877 493.19 184.252C497.75 183.117 505.324 178.554 509.551 182.586C503.027 184.036 506.819 186.313 511.168 187.598C516.093 189.055 521.314 189.623 526.417 190.029C531.672 190.446 537.025 190.526 542.217 189.477C547.017 188.507 552.379 184.329 557.412 185.399C554.619 190.262 546.3 192.918 541.244 194.192C538.668 194.841 537.018 194.638 537.364 197.854C537.699 200.971 540.405 204.096 541.017 207.343C541.825 211.641 541.119 215.589 539.592 219.631C538.089 223.607 537.738 224.126 539.051 227.926C541.097 233.842 536.699 240.38 532.634 244.677C516.195 262.048 484.734 255.468 468.249 241.618ZM510.022 137.796C510.088 137.973 510.032 137.906 510.022 137.796ZM515.142 181.635C514.46 182.145 510.535 183.214 510.699 181.678C510.919 179.619 514.456 180.363 515.142 181.635ZM524.09 140.053C523.169 139.365 520.588 139.648 522.475 137.042C523.089 138.188 523.59 139.121 524.09 140.053ZM462.173 123.578C463.347 120.523 464.648 117.681 465.177 114.429C465.503 112.426 464.854 110.138 467.651 109.824C464.087 108.267 464.05 102.124 463.84 98.939C463.551 94.5528 462.167 88.6804 464.092 84.5982C466.068 80.4048 468.734 80.4741 469.539 85.4683C469.854 87.4237 468.648 88.0561 468.421 89.4179C467.974 92.1118 468.865 91.5212 470.601 89.4689C471.317 91.5549 471.592 94.6895 474.508 94.5569C474.313 93.9928 473.196 92.7483 473.57 92.0476C474.143 90.9714 476.944 92.6157 477.299 92.8646C479.857 94.6558 480.411 96.291 478.587 98.5504C481.112 98.8227 478.993 101.036 480.623 101.614C483.109 102.494 481.442 98.3229 481.172 97.5895C482.686 98.1811 483.194 98.8564 484.152 100.054C484.715 100.88 485.228 101.738 485.69 102.625C486.205 104.245 487.265 104.651 488.872 103.843C492.094 104.855 496.54 104.697 499.427 106.466C500.746 107.274 501.222 109.042 502.324 109.713C503.563 110.469 505.224 110.126 506.556 110.6C506.068 111.708 506.463 112.308 507.737 112.402C508.727 112.492 509.685 112.716 510.612 113.071C511.305 112.547 512.06 112.134 512.874 111.833C513.421 112.799 514.195 113.038 515.196 112.551C518.166 113.108 519.593 114.234 521.481 115.916C523.176 117.425 521.796 117.548 523.653 117.414C524.399 117.36 525.706 116.093 527.413 116.34C528.394 116.532 529.342 116.835 530.253 117.249C531.239 118.093 532.286 118.199 533.393 117.568C535.192 118.448 535.369 120.008 537.562 120.221C539.987 120.458 539.207 117.43 540.872 121.7C543.115 117.173 543.937 124.385 546.253 124.967C548.651 125.571 548.91 123.624 550.964 125.752C551.579 126.389 551.545 127.443 552.235 128.119C553.368 129.226 554.899 129.005 555.883 130.514C555.335 129.672 556.012 133.5 556.001 133.374C556.154 135.063 554.655 136.955 557.727 136.811C557.692 136.989 556.217 139.142 555.929 138.898C555.859 138.652 555.799 138.404 555.752 138.152C555.422 138.293 555.276 140.345 555.337 140.707C555.597 140.748 555.704 140.554 555.656 140.125C555.151 141.707 555.913 142.712 554.943 144.214C554.322 145.174 552.624 145.895 551.721 146.487C549.543 147.917 547.412 149.352 545.287 150.874C540.333 154.423 534.786 158.703 528.547 159.444C531.681 156.363 549.708 144.705 540.666 141.359C538.989 140.738 535.936 140.151 534.182 140.02C532 139.858 529.745 141.109 527.339 140.328C524.435 139.388 525.529 136.655 523.756 135.675C519.99 133.595 520.879 138.486 519.694 139.767C518.449 138.459 518.715 137.822 516.75 137.704C514.753 137.583 514.278 139.431 511.949 138.28C508.74 136.694 510.438 133.535 505.886 133.46C505.962 132.767 506.623 130.829 505.754 130.288C504.583 131.809 505.489 133.509 504.403 134.973C503.858 135.708 502.678 136.293 501.816 136.531C499.798 137.086 499.511 138.148 499.839 135.106C498.344 137.804 493.757 136.694 491.029 136.423C486.594 135.981 481.88 135.14 477.628 133.716C473.696 132.398 471.596 130.135 468.352 128.076C467.126 127.296 466.541 127.594 464.783 127.111C463.047 126.633 461.356 125.708 462.173 123.578ZM471.532 75.8064C472.201 75.4025 472.682 81.4299 471.871 82.5561C470.385 80.2028 467.751 76.751 471.532 75.8064ZM473.67 73.4022C475.823 71.4508 474.328 76.4909 473.933 77.3365C473.135 76.8244 472.338 76.3124 471.54 75.8003C472.557 75.175 472.812 74.1805 473.67 73.4022ZM554.906 65.2796C574.8 69.4597 594.511 77.2732 610.466 90.1319C624.999 101.844 635.256 118.462 641.007 136.138C646.976 154.486 644.971 174.842 630.769 188.883C623.288 196.28 613.408 200.743 603.992 205.097C599.481 207.183 594.835 208.921 590.307 210.959C587.054 212.423 583.083 214.765 579.371 214.359C581.265 212.364 584.012 212.323 586.304 211.103C589.072 209.628 591.334 206.797 593.721 204.776C596.091 202.768 601.347 196.447 604.989 197.977C604.483 194.61 608.315 193.046 610.041 190.826C611.868 188.476 611.999 185.729 615.364 184.96C611.75 182.129 612.857 176.788 613.642 172.933C614.648 168.003 615.113 163.477 615.51 158.461C616.224 149.416 616.8 137.895 611.81 129.943C610.19 127.362 608.128 124.989 606.684 122.307C604.942 119.076 605.326 116.231 605.326 112.688C602.143 114.83 601.471 110.462 600.126 108.334C599.117 106.736 597.791 105.844 597.465 103.834C597.228 102.371 598.814 102.125 597.945 100.591C596.879 101.397 596.454 102.646 595.915 103.805C594.931 103.411 596.091 102.04 595.527 101.594C595.511 101.582 593.613 100.757 593.708 100.876C592.487 99.3266 592.094 96.7551 591.496 94.9108C589.26 96.0451 589.678 95.9115 587.183 94.0163C586.744 93.6827 584.548 92.1506 584.341 91.6497C583.376 89.3077 585.068 90.695 584.595 89.2414C583.236 85.0664 575.613 85.8559 575.008 79.6C571.29 81.9634 569.873 78.6146 567.675 76.2328C565.423 73.7928 561.645 72.8544 561.847 68.9844C560.677 69.3852 559.507 69.7851 558.338 70.1839C558.946 66.6128 553.648 66.8402 551.729 65.0286C552.794 65.0419 553.853 65.1255 554.906 65.2796ZM557.936 286.465C559.78 284.814 559.22 287.011 560.407 286.76C561.421 286.545 561.622 285.776 562.594 285.541C566.603 284.571 572.595 285.79 576.81 285.581C581.692 285.339 590.06 286.354 592.386 292.073C593.788 295.518 591.65 294.346 589.293 294.09C587.466 293.892 585.842 294.262 584.034 294.244C583.14 294.382 582.249 294.368 581.362 294.202C580.929 293.916 580.673 293.515 580.594 292.996C578.079 292.615 575.407 294.105 572.621 294.18C568.903 294.279 565.599 293.565 562.774 291.051C561.651 292.727 560.886 293.558 558.866 293.746C558.813 293.751 556.84 292.956 556.535 292.876C556.131 292.771 555.109 293.621 554.329 293.378C555.712 291.173 555.914 288.276 557.936 286.465ZM811.863 306.369C812.519 304.083 813.068 301.768 813.666 299.467C822.843 309.928 830.874 323.932 834.488 337.349C836.836 346.067 840.489 361.865 829.297 366.361C820.181 370.024 815.098 356.894 812.791 350.427C807.699 336.151 807.699 320.895 811.863 306.369ZM401.268 142.446C401.386 142.422 395.327 145.951 397.323 143.094C398.125 141.945 401.166 141.137 402.516 141.137L401.268 142.446ZM395.44 143.941C394.739 144.532 394.031 145.115 393.317 145.691C392.631 144.605 391.944 143.52 391.258 142.435C392.611 141.863 398.352 141.435 395.44 143.941ZM391.17 253.645C389.902 252.785 388.897 253.242 388.516 254.686C388.516 253.249 389.263 249.913 390.411 249.524C391.153 249.272 387.946 245.472 388.847 244.478C391.139 245.793 389.767 247.053 390.438 248.75C390.742 249.516 391.652 250.24 391.852 250.829C392.189 251.827 393.558 255.262 391.17 253.645ZM384.959 245.095C383.661 245.428 385.934 247.574 385.932 248.522C385.93 249.24 385.07 249.79 384.715 250.772C383.946 252.898 385.27 254.335 383.09 255.958C383.09 251.298 379.968 238.951 385.969 236.681C383.041 234.372 385.446 231.708 387.74 234.47C389.946 237.126 388.541 244.177 384.959 245.095ZM381.833 226.708C380.653 222.519 377.103 221.055 373.045 221.303C373.2 219.158 374.822 216.067 375.995 219.932C376.477 218.789 376.811 217.299 377.909 216.542C379.76 222.352 388.986 225.562 383.242 231.858C382.773 230.141 382.316 228.421 381.833 226.708ZM371.111 221.615C349.744 223.166 319.747 227.605 302.649 211.206C291.501 200.513 292.096 183.861 301.106 171.98C306.247 165.201 313.265 160.427 320.314 155.88C323.034 154.124 325.338 152.966 328.325 151.957C328.808 151.905 329.263 152.013 329.688 152.281C329.856 151.559 330.262 151.025 330.909 150.676C332.062 150.058 333.705 149.837 334.369 148.554C333.66 150.963 333.296 153.444 333.035 155.937C332.46 155.266 331.885 154.595 331.31 153.923C330.83 158.464 326.106 155.716 323.285 156.283C325.143 158.857 326.472 159.793 326.632 163.196C325.248 160.637 322.354 158.955 319.664 158.131C321.125 162.458 322.158 165.027 320.687 169.772C318.91 168.756 318.79 166.316 316.635 165.732C316.066 168.561 315.966 171.701 315.237 174.447C309.718 171.926 310.257 178.715 312.473 182.074C313.651 183.861 314.23 185.929 315.281 187.645C317.86 191.853 315.9 185.56 318.768 185.859C318.124 190.297 317.9 190.739 321.143 193.989C324.309 197.158 325.951 201.555 329.337 204.533C330.317 203.278 328.775 201.966 328.64 200.765C331.791 201.294 333.266 204.458 336.295 201.655C337.616 204.233 339.046 207.072 342.209 207.601C340.118 203.621 346.225 206.32 347.791 206.885C348.979 207.314 351.106 207.654 351.565 207.82C354.146 208.753 352.376 207.078 353.942 210.137C356.242 209.442 357.11 207.532 359.86 209.146C362.096 210.458 362.101 212.707 362.612 215.01C363.145 213.503 363.683 211.998 364.272 210.511C364.873 210.764 367.391 213.539 367.116 213.552C373.009 213.263 372.801 216.927 371.111 221.615ZM341.111 146.504C342.294 145.672 343.739 146.779 345.068 146.481C346.907 146.07 347.952 144.492 350.008 144.323C349.436 146.153 348.362 145.981 347.455 147.419C347.146 147.908 347.306 149.083 347.032 149.365C344.728 151.727 343.932 149.799 341.581 148.011C341.786 150.168 342.2 150.849 340.171 151.427C338.334 151.952 335.303 150.021 334.377 148.54C335.158 146.975 339.695 147.499 341.111 146.504ZM355.772 143.133C357.767 143.324 355.364 149.218 352.504 143.501C353.581 143.266 354.671 143.144 355.772 143.133ZM366.031 141.994C369.177 141.351 379.672 138.357 380.84 143.261C381.049 143.139 381.83 140.37 382.193 140.708C383.646 142.061 383.809 143.856 383.698 145.736C381.941 142.072 382.565 145.29 381.375 145.039C381.065 144.973 380.589 145.554 379.802 145.314C378.77 144.999 378.03 142.801 377.379 142.056C376.295 143.607 374.951 145.603 372.778 145.468C371.241 145.373 368.763 141.41 370.755 145.749C369.586 145.362 368.232 144.487 366.93 144.662C365.472 144.859 364.714 146.301 363.348 146.533C360.318 147.047 359.861 144.128 357.894 142.543C360.606 142.385 363.352 142.541 366.031 141.994ZM385.066 141.947C385.288 140.941 388.041 140.535 388.742 140.855C390.454 141.633 389.821 142.66 389.506 144.37C388.237 143.768 386.967 143.167 385.697 142.565C387.593 145.621 384.159 146.065 385.066 141.947ZM918.023 320.957C917.798 313.633 917.585 306.182 915.731 299.052C914.433 294.062 911.245 285.114 905.216 284.248C896.123 282.942 891.087 300.937 888.54 307.115C888.03 299.842 888.476 292.101 885.733 285.198C883.536 279.666 877.987 274.427 873.208 280.64C868.955 286.168 868.138 294.33 867.018 300.981C865.568 309.601 864.697 318.286 863.637 326.958C859.484 318.921 858.759 309.721 855.475 301.368C852.378 293.486 847.504 285.958 842.808 278.947C838.974 273.221 834.309 267.837 828.302 264.336C823.073 261.289 813.931 257.994 808.947 263.054C804.789 267.276 805.44 272.926 805.657 278.254C805.753 280.626 806.125 282.253 804.041 283.449C803.017 284.036 801.417 283.732 800.292 284.047C798.478 284.553 797.088 285.412 795.554 286.554C784.801 294.557 779.844 308.979 778.31 321.838C776.368 338.13 782.71 352.097 788.169 367.004C789.039 369.379 791.801 374.419 791.419 377.072C791.001 379.978 787.359 380.053 784.9 380.113C777.477 380.297 769.718 379.743 762.332 379.05C744.747 377.403 727.175 368.925 711.429 361.357C708.557 359.976 704.492 359.185 702.148 357.01C699.943 354.966 699.362 351.69 697.459 349.345C692.789 343.591 689.814 338.68 682.937 335.204C675.935 331.664 668.789 328.393 661.957 324.516C653.508 319.72 645.702 313.644 637.605 308.274C622.559 298.296 607.614 287.357 591.661 278.872C584.249 274.928 575.965 274.29 568.269 271.061C560.774 267.918 551.574 267.913 543.753 269.898C539.944 270.867 537.351 273.16 533.847 274.656C529.74 276.41 526.391 274.474 522.778 272.38C517.257 269.181 511.784 263.969 519.646 260.518C522.313 259.347 525.654 258.903 527.984 257.062C530.468 255.101 532.461 251.482 534.481 249.024C538.97 243.562 541.651 237.273 548.222 233.877C555.487 230.12 564.1 229.098 571.847 226.642C580.241 223.983 588.46 220.821 596.697 217.716C611.539 212.122 626.969 206.082 637.634 193.768C646.833 183.145 650.841 169.432 650.47 155.505C649.711 127.032 634.48 98.1362 612.626 80.3344C585.828 58.5054 551.737 51.2264 517.887 51.6079C502.001 51.7874 483.042 53.8693 469.787 63.5343C458.337 71.8823 456.433 86.4832 458.136 99.6632C458.827 105.012 461.189 112.071 457.422 116.785C455.313 119.421 451.529 120.074 448.689 121.719C445.12 123.784 441.973 125.764 437.93 126.857C420.76 131.5 402.673 129.883 385.117 129.626C355.871 129.198 325.894 137.126 304.077 157.762C286.458 174.424 281.175 205.845 302.662 222.089C320.023 235.212 347.254 233.768 367.725 231.48C374.073 230.769 378.437 229.736 378.452 237.513C378.468 246.008 377.063 254.886 379.227 263.226C382.637 276.36 395.24 276.674 406.383 273.845C412.263 272.353 417.946 270.109 423.53 267.758C431.72 264.312 439.226 259.243 447.314 255.802C452.797 253.471 456.903 261.012 461.766 255.784C462.665 254.818 462.83 253.378 464.186 252.883C466.31 252.109 469.873 254.824 471.736 255.683C474.526 256.969 477.338 257.915 478.452 261.012C479.495 263.909 479.039 268.515 478.039 271.373C475.869 277.586 470.026 276.357 464.69 275.942C455.386 275.217 446.143 273.68 436.842 273.034C428.496 272.455 420.681 274.952 413.483 279.073C398.364 287.728 385.995 301.494 372.886 312.816C366.139 318.642 359.618 324.936 352.281 330.01C349.091 332.216 345.636 334.244 342.863 336.986C340.112 339.705 339.81 342.178 338.869 345.797C337.193 352.241 328.871 355.39 323.669 358.79C316.313 363.598 308.514 366.989 300.267 369.939C282.803 376.186 265.201 380.548 246.942 383.772C238.003 385.351 229.138 386.389 220.111 387.241C212.33 387.976 204.056 390.375 196.285 388.458C198.524 384.823 202.49 382.64 205.579 379.83C209.561 376.208 212.948 371.915 215.962 367.468C221.828 358.808 225.943 349.515 226.888 339.011C227.74 329.557 226.763 318.248 221.066 310.262C219.099 307.502 215.206 306.752 213.445 304.267C211.693 301.796 212.361 297.544 211.402 294.663C208.962 287.337 201.718 278.259 195.344 274.004C188.428 269.386 178.312 267.69 170.323 270.096C155.523 274.554 146.432 290.391 139.66 303.192C135.96 295.397 142.155 283.832 134.928 277.449C128.833 272.064 123.995 282.495 121.956 286.958C112.386 307.906 110.212 330.125 106.202 352.539C104.568 350.927 105.406 346.787 105.559 344.864C105.845 341.282 105.819 337.769 105.826 334.173C105.845 325.087 107.532 315.96 106.759 306.882C106.312 301.635 104.642 290.571 97.0281 292.314C90.5713 293.793 86.5269 302.885 84.4981 308.443C81.5719 316.46 80.8963 324.397 81.0784 332.867C81.2799 342.225 79.4993 351.43 79.0679 360.774C78.2295 378.926 79.0577 396.921 84.259 414.439C92.7761 443.126 112.359 466.961 138.496 481.354C152.896 489.285 168.871 494.302 185.296 495.381C194.196 495.966 202.789 494.905 211.613 493.984C220.322 493.074 229.076 492.654 237.769 491.587C257.129 489.209 275.994 483.072 293.591 474.813C302.854 470.466 311.564 465.129 320.675 460.494C324.331 458.635 326.801 456.309 329.921 453.723C333.014 451.16 333.871 450.959 337.388 450.959C336.356 448.195 339.368 447.343 340.708 445.594C340.633 446.443 340.558 447.29 340.482 448.138C341.504 445.919 342.455 445.941 343.335 448.202C344.205 445.67 344.849 443.065 345.899 440.597C349.915 442.632 349.577 447.47 354.947 443.937C359.37 441.03 363.437 437.601 367.945 434.752C378.216 428.26 387.071 419.814 397.37 413.397C397.37 419.647 397.811 425.951 396.977 432.169C396.183 438.081 393.978 443.608 392.225 449.268C388.992 459.711 388.768 470.872 385.185 481.21C383.703 485.491 379.842 489.071 378.735 493.239C377.606 497.491 380.213 500.898 375.843 503.69C372.762 505.657 368.911 506.489 365.499 507.679C360.295 509.496 355.354 512.059 350.288 514.233C326.527 524.428 303.349 534.811 281.334 548.52C260.442 561.528 239.23 574.963 220.038 590.413C203.381 603.821 186.543 621.158 182.488 643.031C178.554 664.247 189.037 687.019 210.086 694.007C221.031 697.64 233.404 697.19 244.802 697.347C257.066 697.517 270.062 694.557 282.12 692.415C294.854 690.154 307.37 686.614 320.141 684.595C332.394 682.656 343.633 678.325 355.686 675.656C368.523 672.813 381.69 671.271 394.598 668.714C400.409 667.562 406.103 665.864 411.93 664.798C418.31 663.631 424.759 663.193 431.077 661.648C443.33 658.649 455.062 653.815 467.369 651.025C472.902 649.77 478.351 648.09 483.886 646.918C488.982 645.839 492.952 642.971 498.06 645.326C502.186 647.229 505.477 650.492 509.382 652.765C514.447 655.714 519.787 658.355 525.067 660.892C535.677 665.99 546.681 669.513 557.774 673.34C569.427 677.361 580.871 681.947 592.943 684.602C605.319 687.323 617.945 688.081 630.407 690.234C655.929 694.643 681.234 696.622 707.14 696.782C720.235 696.865 733.328 695.31 746.392 695.494C757.957 695.657 768.012 698.267 778.587 692.11C795.485 682.273 815.085 667.455 814.67 645.932C814.293 626.438 802.614 607.813 791.662 592.438C778.359 573.766 759.394 560.617 740.806 547.737C720.995 534.012 698.743 524.527 677.922 512.546C667.273 506.418 657.453 499.826 645.89 495.471C640.371 493.393 634.986 490.984 629.532 488.746C625.142 486.946 618.805 485.951 615.048 482.963C612.704 481.1 612.479 478.277 611.861 475.506C610.489 469.373 608.335 463.557 606.247 457.643C602.216 446.222 599.537 434.591 597.804 422.613C596.153 411.195 592.487 399.321 594.386 387.717C606.874 399.812 619.706 411.44 632.483 423.215C637.271 427.628 641.971 432.134 646.785 436.52C650.398 439.812 654.917 444.704 659.955 445.681C666.387 446.929 664.038 439.803 668.455 438.7C671.154 438.025 679.295 444.893 681.43 446.25C694.958 454.85 709.938 460.3 724.818 466.154C740.42 472.292 756.467 477.744 773.256 479.289C788.764 480.718 804.622 478.884 819.588 474.654C849.391 466.229 871.322 446.238 887.417 420.324C905.757 390.796 919.102 356.205 918.023 320.957Z" fill="black"/>
<path fill-rule="evenodd" clip-rule="evenodd" d="M462.519 256.585C462.514 256.594 462.468 256.691 462.468 256.691C462.525 256.652 462.541 256.617 462.519 256.585Z" fill="black"/>
<path fill-rule="evenodd" clip-rule="evenodd" d="M463.957 256.966C463.846 256.026 463.604 255.105 463.234 254.203C462.248 255.769 461.365 256.44 462.661 258.099C463.093 257.721 463.524 257.344 463.957 256.966Z" fill="black"/>
<path fill-rule="evenodd" clip-rule="evenodd" d="M532.683 480.822C533.786 479.647 531.856 479.203 531.123 479.188C531.195 480.449 530.571 483.472 532.295 484.057C531.881 482.916 532.011 481.838 532.683 480.822Z" fill="black"/>
<path fill-rule="evenodd" clip-rule="evenodd" d="M503.57 234.766C501.673 238.434 505.863 239.571 508.288 237.8C510.114 236.468 511.193 233.072 511.492 230.893C512.463 223.843 507.536 217.132 505.079 210.877C504.444 209.26 503.575 203.714 501.531 203.562C499.182 203.387 499.009 208.494 498.978 209.812C498.888 213.786 499.938 217.833 501.17 221.584C502.497 225.629 505.785 230.483 503.57 234.766Z" fill="black"/>
<path fill-rule="evenodd" clip-rule="evenodd" d="M512.591 220.056C519.881 226.557 525.713 215.73 525.203 209.326C525.077 207.739 524.007 201.889 521.002 204.018C519.492 205.088 520.779 208.564 520.059 210.089C516.572 217.488 513.215 206.012 510.867 205.111C508.01 204.013 507.723 207.772 507.727 209.781C507.734 213.769 509.629 217.415 512.591 220.056Z" fill="black"/>
<path fill-rule="evenodd" clip-rule="evenodd" d="M486.126 221.066C487.844 218.358 489.955 214.727 490.188 211.483C490.551 206.441 487.617 206.861 485.201 210.379C483.495 212.864 482.216 217.08 478.45 216.032C473.801 214.74 475.221 208.48 472.619 205.505C466.046 214.345 478.484 233.115 486.126 221.066Z" fill="black"/>
<path fill-rule="evenodd" clip-rule="evenodd" d="M495.977 248.118C498.696 248.707 505.783 248.489 503.327 244.322C500.23 239.071 489.931 246.809 495.977 248.118Z" fill="black"/>
<path fill-rule="evenodd" clip-rule="evenodd" d="M591.211 91.5522C591.708 90.0684 591.025 89.7989 589.838 88.6304C588.714 89.6688 590.154 90.7613 591.211 91.5522Z" fill="black"/>
<path fill-rule="evenodd" clip-rule="evenodd" d="M641.915 360.315C643.709 360.601 644.286 359.651 643.646 357.465C640.816 357.282 640.24 358.232 641.915 360.315Z" fill="black"/>
<path fill-rule="evenodd" clip-rule="evenodd" d="M543.984 131.046C545.962 131.952 545.204 133.81 545.17 135.38C546.189 134.272 548.248 132.244 547.409 130.652C546.118 128.196 542.744 130.48 543.984 131.046Z" fill="black"/>
<path fill-rule="evenodd" clip-rule="evenodd" d="M476.602 100.137C476.3 99.5482 475.999 98.959 475.697 98.3699C474.469 99.357 472.572 101.967 474.524 103.24C475.324 102.267 476.017 101.233 476.602 100.137Z" fill="black"/>
<path fill-rule="evenodd" clip-rule="evenodd" d="M500.337 117.463C502.798 119.396 501.617 113.464 501.543 112.979C501.177 113.675 499.093 116.487 500.337 117.463Z" fill="black"/>
<path fill-rule="evenodd" clip-rule="evenodd" d="M498.973 114.451C498.785 113.961 498.595 113.47 498.407 112.979C497.41 113.904 496.188 115.793 497.836 116.875C498.288 116.117 498.667 115.309 498.973 114.451Z" fill="black"/>
<path fill-rule="evenodd" clip-rule="evenodd" d="M514.604 134.822C514.805 135.008 515.006 135.194 515.207 135.38C516.018 133.741 515.095 132.509 513.562 132.458C513.671 133.379 514.019 134.167 514.604 134.822Z" fill="black"/>
<path fill-rule="evenodd" clip-rule="evenodd" d="M448.652 319.297C449.629 318.631 450.515 317.872 451.313 317.02C448.423 315.251 450.154 319.085 446.676 316.731C445.926 317.768 447.151 320.089 448.652 319.297Z" fill="black"/>
<path fill-rule="evenodd" clip-rule="evenodd" d="M570.076 480.162C571.175 478.473 571.373 478.521 569.873 477.24C568.621 479.327 568.75 478.791 570.076 480.162Z" fill="black"/>
<path fill-rule="evenodd" clip-rule="evenodd" d="M340.43 211.424C341.028 212.048 341.626 212.673 342.224 213.297C342.503 212.48 344.026 210.17 342.992 209.401C342.138 210.075 341.283 210.749 340.43 211.424Z" fill="black"/>
<path fill-rule="evenodd" clip-rule="evenodd" d="M361.705 217.604C360.75 217.444 358.466 216.747 357.938 217.636C359.335 218.782 362.488 217.735 361.705 217.604Z" fill="black"/>
</g>
</svg>
