<svg width="949" height="712" viewBox="0 0 949 712" fill="none" xmlns="http://www.w3.org/2000/svg">
<path fill-rule="evenodd" clip-rule="evenodd" d="M684.245 524.754C680.059 529.598 673.878 533.192 669.134 537.62C664.154 542.271 658.748 546.335 653.787 550.93C631.903 524.173 601.924 507.767 575.954 485.564C563.642 475.037 554.57 460.759 547.932 446.105C544.529 438.593 542.015 430.861 540.047 422.859C539.161 419.254 538.295 415.662 537.715 412.008C537.014 407.583 536.832 407.206 533.848 403.752C532.564 402.266 530.075 397.924 527.559 398.402C525.442 398.806 521.569 405.253 520.23 406.846C513.795 414.507 507.556 422.4 500.78 429.764C490.415 441.031 480.978 452.119 471.353 464.062C451.665 488.495 430.428 511.495 408.997 534.486C407.408 536.191 403.702 541.191 401.418 541.863C398.642 542.68 394.129 539.273 391.333 537.368C384.584 532.772 379.264 527.082 373.494 521.385C362.235 510.268 354.61 494.662 349.482 479.814C346.411 470.926 344.415 461.713 341.247 452.855C339.926 449.164 336.932 444.627 338.452 441.412C338.905 440.453 341.785 437.906 342.801 437.712C344.002 437.481 346.005 439.128 346.422 439.014C350.407 437.923 348.195 433.75 350.566 431.505C351.91 430.231 358.745 430.417 360.785 429.717C368.247 427.157 374.941 422.273 381.994 419.357C411.524 407.153 441.412 395.282 466.905 375.352C473.516 370.185 477.909 366.301 485.798 362.961C493.77 359.585 501.783 356.574 509.917 353.629C517.094 351.03 524.31 348.594 531.724 346.731C539.74 344.717 551.113 342.163 559.123 344.758C574.853 349.852 579.932 362.817 586.196 376.494C594.671 394.999 604.918 412.51 616.027 429.542C637.399 462.313 663.39 491.719 684.245 524.754Z" fill="#687DAC"/>
<path fill-rule="evenodd" clip-rule="evenodd" d="M210.522 235.043C209.657 234.604 202.899 237.355 201.764 237.776C197.234 239.458 192.966 242.252 188.697 244.525C191.969 248.508 195.241 252.492 198.512 256.476C201.718 248.607 205.839 242.115 210.522 235.043ZM212.753 283.998C211.64 284.123 221.037 306.713 222.135 309.25C226.128 318.475 230.321 327.611 234.367 336.813C238.287 345.731 243.26 353.934 248.27 362.265C252.555 369.39 256.963 380.446 263.427 385.723C259.346 367.61 259.883 346.783 248.176 331.574C236.042 315.807 224.044 300.411 212.753 283.998ZM684.245 525.559C666.111 496.833 643.411 471.421 624.501 443.208C613.913 427.41 603.608 411.411 594.695 394.595C588.212 382.363 584.183 364.911 574.17 355.559C569.758 351.44 565.043 347.407 559.122 345.561C551.02 343.036 539.863 345.539 531.724 347.536C516.555 351.256 501.737 357.034 487.37 363.101C472.797 369.255 460.363 380.31 447.196 389.191C433.071 398.72 417.782 405.661 401.956 411.737C388.177 417.028 375.919 424.623 362.213 429.949C359.482 431.01 353.908 430.854 351.617 432.239C349.149 433.728 350.121 438.128 347.124 439.752C345.771 440.484 345.321 437.829 344.283 437.872C343.013 437.925 341.856 439.416 340.633 440.36C335.651 444.204 338.703 446.768 340.675 452.058C347.104 469.294 350.559 486.831 359.586 503.103C367.007 516.478 377.629 528.463 390.134 537.318C392.037 538.666 398.238 543.887 400.471 543.54C402.481 543.228 406.571 537.883 407.959 536.431C414.256 529.843 420.012 522.756 426.306 516.158C436.031 505.961 445.393 495.491 454.831 485.155C465.788 473.155 475.484 459.56 485.352 446.739C489.892 440.841 495.735 436.037 500.78 430.568C507.565 423.214 513.795 415.309 520.231 407.65C522.177 405.333 525.439 399.404 528.465 399.474C530.586 399.523 534.324 404.517 535.433 406.082C539.556 411.899 539.537 422.405 541.587 429.667C546.59 447.374 555.61 464.669 567.981 478.333C580.283 491.921 596.042 501.584 610.592 512.506C626.354 524.34 641.287 536.449 653.787 551.734C658.748 547.139 664.154 543.074 669.134 538.424C673.878 533.995 680.06 530.402 684.245 525.559ZM450.823 606.827C454.349 606.863 460.319 609.032 463.473 607.726C454.118 597.372 445.527 588.487 433.691 580.899C421.409 573.024 409.167 565.22 397.238 556.821C373.197 539.894 355.515 519.82 345.472 491.631C342.887 484.372 341.154 476.759 339.259 469.297C338.24 465.278 336.21 446.477 332.764 444.853C330.722 443.891 315.356 454.694 312.922 456.041C307.229 459.19 301.516 461.632 295.631 464.096C282.982 469.394 269.941 473.435 256.528 476.809C240.445 480.854 229.491 474.161 219.529 461.517C208.226 447.171 198.833 430.985 188.499 415.92C183.799 409.068 179.906 402.227 176.435 394.669C174.164 389.724 165.155 376.383 168.268 371.114C177.149 377.878 180.344 391.327 186.394 400.384C193.934 411.671 202.432 422.313 210.011 433.59C216.384 443.072 222.886 454.564 232.302 461.381C240.584 467.376 248.453 465.533 257.366 462.838C268.169 459.573 279.367 457.963 289.955 453.913C301.412 449.531 312.253 443.313 323.431 438.244C328.642 435.88 334.882 434.537 339.793 431.59C344.026 429.051 343.394 427.711 343.705 422.305C344.068 415.998 344.486 409.686 344.765 403.374C344.952 399.132 342.659 393.382 344.215 390.216C331.524 392.417 319.121 395.365 306.519 397.973C299.619 399.4 292.966 401.166 285.996 402.287C283.339 402.715 279.707 402.703 277.328 403.861C275.43 403.315 274.462 403.662 274.425 404.9C274.334 405.572 274.191 406.235 273.993 406.887C270.102 408.657 267.839 404.859 264.463 401.216C260.298 396.719 257.18 391.655 254.124 386.372C247.292 374.559 239.418 363.449 233.095 351.303C226.652 338.922 221.418 325.666 215.955 312.82C210.943 301.035 207.734 288.289 202.195 276.783C199.724 271.647 196.591 267.4 192.933 263.062C189.915 259.481 185.271 251.758 180.763 250.113C179.571 249.678 176.45 250.409 175.096 250.312C172.397 250.12 169.992 249.128 167.231 249.345C161.251 249.814 154.732 253.596 149.954 256.922C153.042 259.675 160.767 263.022 155.218 267.982C149.834 272.797 146.86 264.159 144.805 260.375C135.13 268.323 136.528 279.282 135.41 290.512C134.827 296.374 133.291 302.148 132.3 307.923C131.587 312.079 132.087 316.378 131.883 320.621C131.363 331.404 130.28 341.726 130.331 352.357C130.388 363.722 131.162 374.696 132.071 385.978C133.601 404.972 137.107 423.973 140.114 442.816C141.805 453.408 144.12 463.698 146.368 474.119C148.918 485.945 153.636 497.147 156.282 508.944C158.978 505.515 161.006 505.499 165.366 505.953C168.72 506.302 170.973 505.504 170.776 510.161C170.65 513.181 167.986 515.488 165.039 516.015C161.196 516.702 159.89 514.784 157.909 511.872C157.446 517.387 161.153 523.152 162.619 528.538C164.006 533.641 164.926 538.644 167.258 543.528C169.533 548.294 171.481 552.994 173.783 557.714C174.843 559.885 175.835 562.09 176.907 564.256C177.449 565.353 178.088 566.864 178.897 567.788C180.795 569.955 180.493 568.905 182.714 570.139C187.554 572.829 185.736 572.159 185.849 577.712C185.96 583.19 188.768 587.214 193.271 590.293C202.825 596.827 212.248 598.644 223.11 601.946C233.23 605.022 243.889 607.661 254.605 607.601C267.73 607.528 280.681 605.806 293.805 605.632C308.285 605.44 322.904 605.519 337.354 606.019C343.306 606.225 348.834 606.49 354.581 608.011C361.255 609.778 367.711 609.077 374.589 608.809C389.263 608.238 404.444 607.102 418.926 607C429.354 606.926 440.356 606.198 450.823 606.827ZM831.339 612.517C833.948 613.896 839.795 613.33 842.418 612.947C847.038 612.274 847.533 610.442 850.464 606.321C855.51 599.224 859.606 592.427 862.574 584.207C868.255 568.473 870.575 552.377 873.069 535.919C875.841 517.631 870.779 498.675 868.968 480.512C868.552 476.345 867.983 472.215 867.325 468.08C866.931 465.607 866.828 457.196 865.202 455.055C862.077 450.942 847.545 454.26 841.832 454.632C825.884 455.674 809.832 455.918 793.891 456.099C785.392 456.195 776.846 456.551 768.431 456.617C764.566 456.648 760.788 456.456 756.909 456.079C755.612 455.954 754.345 455.656 753.038 455.583C748.564 455.336 748.9 454.687 747.743 458.65C745.718 465.594 747.276 474.428 746.744 481.635C746.033 491.266 745.648 501.033 745.824 510.684C745.987 519.602 745.683 528.5 746.016 537.438C746.155 541.14 746.559 544.158 747.535 547.693C748.639 551.69 749.853 561.027 752.602 563.793C752.914 564.108 755.25 563.374 755.87 564.158C756.826 565.366 756.651 567.922 757.307 568.702C759.43 571.23 763.818 571.43 767.001 572.566C775.736 575.681 783.749 579.064 791.981 583.266C799.337 587.02 811.197 590.214 815.619 597.62C817.647 601.015 817.92 605.492 819.785 608.994C821.908 612.985 817.66 610.899 822.862 612.517C825.205 613.246 828.938 612.517 831.339 612.517ZM55.8696 567.389C55.2079 576.603 50.019 585.38 48.2127 594.439C47.3675 598.682 45.9338 602.852 44.9404 607.069C43.9877 611.115 40.5457 615.906 40.8941 619.909C53.5981 615.381 66.4662 614.243 79.7438 613.022C92.3283 611.864 105.623 611.403 118.101 611.397C130.817 611.391 144.414 610.149 157.507 609.956C171.2 609.755 185.099 609.4 198.594 607.979C191.538 602.751 182.708 597.842 177.498 590.568C171.834 582.661 168.892 572.754 163.908 564.41C153.907 547.666 147.548 526.889 142.306 508.078C131.721 470.103 119.893 432.828 117.042 393.438C111.617 396.218 107.31 407.001 104.594 412.37C101.127 419.226 99.3114 426.658 97.0575 433.944C92.4163 448.953 89.2042 464.515 83.5213 479.381C72.6597 507.798 65.6784 538.417 55.8696 567.389ZM745.481 346.06C747.831 363.044 752.757 380.248 752.946 397.437C752.988 401.218 752.348 405.418 753.135 409.147C753.977 413.128 756.714 416.647 758.294 420.43C760.801 426.436 767.153 438.746 761.028 443.835C760.903 439.005 756.486 432.873 754.26 428.65C750.906 422.287 746.5 416.47 742.864 410.265C735.254 397.277 726.726 384.568 716.918 373.118C707.365 361.966 696.355 352.073 686.224 341.453C683.181 338.262 658.765 307.55 657.794 307.98C665.368 337.196 678.242 362.616 695.861 387.078C704.499 399.07 714.867 406.962 725.383 417.121C734.14 425.581 750.644 434.628 747.617 448.49C761.306 447.174 774.905 445.07 788.718 445.07C786.447 427.581 784.707 410.369 780.652 393.167C776.048 373.634 772.929 353.517 769.033 333.811C765.057 313.693 758.313 294.217 754.118 274.137C750.1 254.91 746.649 235.716 743.704 216.274C741.27 227.047 742.168 238.88 741.304 249.871C740.422 261.101 740.507 272.124 740.801 283.419C741.345 304.4 743.58 325.128 745.481 346.06ZM804.799 246.029C804.876 237.049 806.616 228.189 807.152 219.23C807.317 216.481 810.054 197.727 807.502 196.748C805.403 201.326 804.913 207.184 803.007 211.988C801.102 216.786 798.555 221.358 796.727 226.19C792.768 236.657 791.402 248.502 790.976 259.63C790.011 284.803 789.512 309.918 791.204 335.09C791.928 345.88 792.485 356.688 792.286 367.498C792.068 379.394 790.247 389.719 792.459 401.517C794.648 413.2 796.023 424.835 796.752 436.689C797.264 445.008 797.47 444.42 805.404 443.835C811.133 443.412 816.918 443.863 822.654 443.601C819.972 411.175 819.534 378.683 815.249 346.381C813.063 329.902 813.005 313.185 810.289 296.768C808.94 288.612 806.676 280.621 805.375 272.456C803.978 263.689 804.666 254.863 804.799 246.029ZM224.549 225.623C239.825 226.947 256.073 231.516 271.731 228.499C269.15 227.453 262.396 226.011 265.436 221.883C268.526 217.686 273.735 223.01 276.817 222.46C278.718 222.121 282.918 214.173 284.089 212.527C286.748 208.787 287.069 208.136 291.85 207.177C296.482 206.25 297.532 207.254 298.119 202.647C298.792 197.35 296.96 191.394 297.142 185.977C297.532 174.316 301.293 164.089 304.793 153.117C289.921 156.353 275.38 160.192 260.173 162.277C253.673 163.169 243.56 165.226 237.655 160.806C236.119 159.657 236.365 158.105 235.108 156.772C233.001 154.537 229.092 152.225 226.103 151.588C207.71 147.671 205.915 173.901 215.133 183.716C217.442 186.176 220.654 187.39 223.018 189.644C226.173 192.65 226.432 195.816 226.893 200.404C227.756 209.007 226.583 217.644 222.914 225.514L224.549 225.623ZM447.754 349.454C453.184 350.485 458.851 350.249 464.295 351.129C466.229 351.441 472.027 352.532 473.728 351.401C476.325 349.673 477.248 343.339 478.476 340.389C480.635 335.2 483.691 330.674 485.75 325.39C494.165 303.81 502.012 282.143 512.189 261.299C508.289 260.285 505.293 260.245 501.362 259.721C497.267 259.175 493.554 256.753 489.647 255.712C485.933 254.722 482.043 254.975 478.364 253.824C476.337 253.191 474.597 251.783 472.599 251.29C469.414 250.507 465.697 250.049 463.802 252.141C461.861 254.286 461.18 260.168 460.123 262.939C457.31 270.322 454.041 277.446 451.684 284.998C449.557 291.81 447.537 298.548 445.665 305.422C443.687 312.678 439.789 318.659 437.415 325.591C435.609 330.867 433.904 336.26 433.635 341.886C433.372 347.375 432.574 347.725 438.061 348.602C440.831 349.044 445.148 350.69 447.754 349.454ZM805.01 606.363C806.424 607.023 807.757 606.935 809.009 606.1C796.748 600.92 784.821 593.735 772.03 590.18C760.031 586.847 748.369 582.865 736.81 578.759C727.417 575.424 718.972 572.827 710.48 566.957C705.326 563.393 700.747 559.386 697.205 554.179C693.261 548.381 692.384 540.13 688.113 534.908C682.349 541.241 675.577 546.037 668.757 551.069C666.397 552.81 660.738 556.606 659.93 559.3C658.912 562.7 661.64 565.952 662.99 569.392C666.445 578.203 668.134 587.01 670.009 596.17C670.76 599.841 672.383 605.36 675.398 606.898C678.143 608.297 686.093 607.28 689.509 607.021C707.33 605.67 724.836 604.287 742.765 605.517C763.053 606.908 784.774 607.87 805.01 606.363ZM840.605 443.093C843.844 443.104 847.008 442.699 850.235 442.699C848.373 433.998 852.728 422.74 854.271 414.055C855.999 404.34 857.314 394.294 858.466 384.501C860.894 363.875 861.994 343.498 862.026 322.72C862.055 302.615 865.714 284.242 870.839 264.914C876.342 244.157 885.354 225.49 892.805 205.471C884.632 209.793 880.108 219.907 875.813 227.639C870.384 237.415 866.768 248.239 864.551 259.214C860.274 280.386 855.583 301.622 850.648 322.758C845.509 344.766 842.488 366.977 836.601 388.805C833.73 399.449 829.826 412.545 829.61 423.523C829.52 428.064 828.152 437.574 830.209 441.518C832.133 445.208 836.387 443.469 840.605 443.093ZM351.693 415.787C351.523 418.047 351.362 420.197 350.96 422.429C355.447 422.386 361.129 417.73 364.977 415.639C369.664 413.092 374.357 410.283 378.942 407.724C387.793 402.78 397.84 399.524 407.291 395.463C418.147 390.798 428.125 385.161 438.507 379.545C442.133 377.583 468.195 366.282 467.758 363.195C462.036 363.004 456.314 362.814 450.592 362.624C445.686 362.461 438.089 363.569 433.391 362.053C430.818 361.221 427.93 358.161 426.958 355.764C425.997 353.393 428.157 342.486 426.902 341.79C420.498 348.331 416.471 357.024 410.746 364.08C404.419 371.879 396.243 376.433 387.232 380.577C377.281 385.154 366.982 388.698 356.813 392.621C352.524 394.275 352.609 395.221 352.236 399.925C351.818 405.183 351.863 410.515 351.693 415.787ZM868.775 613.589C879.562 614.747 890.616 614.087 901.487 614.99C905.442 615.318 910.926 615.808 906.947 621.118C904.441 624.463 896.413 623.39 892.772 623.622C882.995 624.244 872.644 623.909 862.846 623.765C860.783 623.735 858.503 623.121 856.418 623.259C854.011 623.418 851.129 625.15 848.935 625.137C847.583 625.128 847.098 623.702 845.933 623.571C843.392 623.285 840.853 623.077 838.291 623.078C799.562 623.086 761.365 622.307 722.732 622.266C704.259 622.246 685.489 621.927 667.024 621.059C663.146 620.877 641.063 621.67 641.675 614.686C641.989 611.089 649.197 610.582 651.827 610.2C653.776 609.917 655.798 609.961 657.751 609.857C662.939 609.578 665.211 610.827 664.116 605.149C659.966 583.611 652.527 565.811 636.635 550.325C623.64 537.662 607.993 526.175 593.274 515.601C575.403 502.761 560.904 489.257 550.294 469.609C544.098 458.136 538.911 446.405 535.727 433.719C534.582 429.155 534.555 423.964 533.151 419.564C532.071 416.177 529.61 413.806 528.16 410.297C510.379 440.007 486.813 464.863 465.205 491.65C454.88 504.447 443.101 516.602 430.765 527.736C427.105 531.04 423.689 534.489 420.272 538.045C417.414 541.021 412.876 543.666 410.463 546.967C408.148 550.134 408.718 549.983 412.241 552.498C416.899 555.822 422.033 558.583 426.764 561.824C434.326 567.006 442.581 571.384 449.342 577.619C456.655 584.363 463.044 592.174 469.436 599.778C473.697 604.847 479.287 611.35 480.358 617.758C480.713 619.878 482.061 625.122 480.282 626.675C478.762 628.001 478.915 627.498 477.028 626.689C474.556 625.628 473.828 623.195 470.808 622.035C463.08 619.068 453.728 620.087 445.686 620.051C437.642 620.015 429.531 620.919 421.49 620.885C403.129 620.81 385.16 622.297 366.804 623.095C347.309 623.943 327.575 621.909 308.144 622.197C293.748 622.41 278.968 621.334 264.174 622.134C256.565 622.545 249.091 621.593 241.672 621.486C231.957 621.346 221.981 622.668 212.183 622.856C196.102 623.167 180.217 623.165 164.038 623.551C129.236 624.385 94.6229 625.245 59.8009 625.797C55.156 625.87 50.0709 625.713 45.4807 626.235C40.6087 626.792 43.1239 627.827 39.7811 629.582C30.4227 634.493 32.5839 616.289 32.8082 612.708C34.0111 593.521 38.8803 574.703 44.7318 556.488C50.2831 539.212 54.7899 521.13 59.4914 503.48C64.6377 484.163 71.3428 465.636 77.4316 446.508C83.6705 426.908 88.7501 406.544 100.082 389.169C102.663 385.212 105.33 380.954 109.482 378.459C114.136 375.662 114.336 377.296 114.332 372.177C114.329 367.357 114.626 360.916 113.489 356.316C112.461 352.16 112.62 354.624 110.306 351.639C108.422 349.211 106.452 347.551 105.101 344.603C96.8008 353.022 77.8013 348.579 69.7821 342.517C59.9668 335.097 52.4907 322.578 49.7512 310.656C47.551 301.082 50.2507 282.833 60.8435 278.229C66.0074 275.984 84.9744 274.288 85.7335 266.973C86.1246 263.197 79.4491 257.888 77.9088 254.641C75.0544 248.626 72.3131 240.625 71.5198 234.032C69.9702 221.162 75.8107 206.771 85.1144 198.078C102.182 182.13 132.211 173.946 154.165 184.064C149.526 166.335 146.725 151.041 149.062 132.6C151.075 116.712 160.445 107.823 173.339 99.9098C195.342 86.404 225.263 81.0733 250.422 85.0004C256.139 85.8932 261.626 87.8076 266.919 89.3308C274.609 91.5438 283.816 90.8067 291.077 94.402C296.342 97.008 300.34 102.2 304.964 105.666C310.362 109.713 314.847 115.753 318.598 121.338C326.619 133.283 323.485 155.451 316.771 167.441C315.332 170.013 313.554 172.178 311.172 173.933C308.692 175.759 304.912 176.327 303.634 178.696C300.36 184.764 303.518 197.9 303.954 204.458C304.463 212.073 300.614 217.793 291.982 218.4C286.989 218.753 286.83 215.855 284.439 221.818C282.889 225.683 281.481 229.893 279.245 233.437C274.635 240.739 266.19 240.026 258.498 239.829C249.594 239.599 240.823 238.192 231.914 237.304C234.267 244.845 240.708 250.699 244.73 257.418C250.168 266.505 253.441 274.037 254.326 284.625C255.004 292.759 253.54 299.183 247.975 305.236C245.672 307.742 243.631 307.866 244.203 310.756C244.551 312.52 247.599 315.429 248.678 316.836C251.531 320.559 254.845 323.977 257.356 327.953C267.02 343.252 269.875 366.573 269.899 384.383C269.9 385.199 270.335 386.936 269.975 387.78C269.708 388.404 267.68 390.38 267.65 390.549C267.254 392.839 269.485 396.765 272.988 397.153C276.666 397.56 283.403 394.49 286.824 393.481C292.299 391.866 297.88 390.674 303.344 389.015C312.167 386.337 320.95 384.201 329.92 382.102C333.974 381.154 338.05 380.365 342.116 379.478C346.748 378.47 348.9 376.52 351.291 381.234C353.342 385.28 352.067 386.013 357.035 383.975C361.968 381.949 366.789 379.438 371.605 377.152C380.1 373.121 390.216 369.528 397.544 363.577C409.767 353.649 414.293 337.838 425.992 327.304C429.249 324.371 431.193 324.319 433.252 320.255C435.457 315.906 436.594 310.329 437.752 305.651C439.783 297.459 441.228 289.239 443.069 281.054C445.363 270.858 450.32 261.625 453.937 251.9C455.347 248.111 456.077 243.294 458.35 239.889C458.953 238.986 460.104 238.477 460.574 237.73C462.191 235.165 462.174 234.46 462.593 231.374C464.553 216.953 473.158 224.539 482.561 227.846C486.523 229.24 505.335 238.276 498.152 244.285C506.715 246.771 520.43 245.42 520.315 257.697C520.256 263.987 516.495 270.716 514.477 276.603C512.683 281.831 510.95 287.08 509.129 292.299C505.14 303.733 500.299 314.824 496.406 326.293C494.631 331.52 493.167 336.87 490.696 341.803C488.517 346.154 483.241 350.951 482.372 355.71C505.191 345.971 526.302 331.89 551.844 332.788C563.029 333.18 573.178 337.883 579.355 347.72C587.099 360.05 592.195 373.855 599.763 386.3C627.298 431.568 660.139 472.694 690.366 516.089C692.688 519.423 695.674 522.576 696.479 526.697C697.004 529.386 695.985 532.075 696.615 534.658C697.923 540.026 704.53 546.728 709.01 549.812C717.597 555.725 731.557 564.065 742.273 563.327C735.547 547.159 735.637 529.443 735.949 512.197C736.247 495.814 738.017 479.563 740.118 463.35C740.594 459.681 741.008 456.281 742.061 452.725C743.271 448.646 744.932 449.033 741.309 445.366C735.734 439.72 729.102 435.075 723.481 429.358C711.325 416.996 698.865 407.307 689.297 392.545C680.199 378.505 670.599 364.058 663.864 348.682C656.93 332.854 654.158 315.951 650.716 299.188C649.319 292.386 644.226 284.792 645.249 277.689C646.542 268.712 650.704 275.249 652.398 280.08C657.567 294.827 669.671 308.026 679.697 319.886C690.529 332.699 703.777 343.418 715.084 355.858C727.396 369.406 735.829 384.977 746.778 399.439C746.778 381.491 740.652 363.214 738.146 345.459C735.941 329.831 735.249 314.154 733.855 298.459C730.69 262.805 733.425 226.101 737.867 190.702C739.978 173.89 738.781 157.474 738.845 140.605C738.865 135.236 736.644 122.862 739.475 118.098C744.897 108.973 748.06 128.927 748.335 131.902C749.974 149.624 747.034 167.148 748.536 184.794C750.106 203.222 753.513 221.132 756.411 239.347C759.552 259.069 764.665 278.345 769.56 297.689C774.7 317.999 779.022 338.732 784.737 358.879C786.278 352.546 784.116 344.766 783.689 338.317C783.079 329.087 781.888 319.855 781.785 310.601C781.62 295.852 781.505 280.829 782.339 266.149C783.161 251.679 782.913 236.516 787.349 222.576C789.455 215.959 792.543 209.504 795.564 203.271C799.292 195.586 800.609 188.134 802.673 179.96C804.442 172.959 807.029 166.143 808.207 159.003C808.939 154.562 810.983 141.453 816.065 151.385C819.016 157.15 817.741 165.696 817.823 171.889C817.929 179.828 816.714 187.548 816.527 195.454C816.165 210.966 815.905 226.459 814.748 241.945C813.535 258.193 814.594 272.753 817.684 288.762C821.066 306.286 822.055 323.848 823.808 341.586C824.712 350.744 826.235 359.852 826.971 369.024C827.36 373.881 825.364 387.808 828.843 391.267C829.18 382.855 831.589 374.435 833.416 366.238C835.58 356.526 836.454 346.317 838.049 336.467C840.631 320.508 845.643 305.268 848.959 289.488C855.794 256.96 861.473 215.153 890.118 193.861C893.865 191.075 897.984 189.019 902.036 186.726C904.329 185.429 907.737 182.071 910.362 181.485C913.226 180.845 914.421 181.342 915.582 184.667C917.201 189.301 914.24 191.466 911.476 194.832C901.909 206.48 897.822 221.411 891.915 235.072C878.388 266.353 872.403 299.346 872.334 333.158C872.298 350.859 871.077 367.931 869.19 385.525C867.16 404.459 864.486 424.484 858.736 442.698C864.503 443.991 870.76 442.063 872.326 448.769C872.71 450.417 872.015 452.365 872.441 454.509C872.854 456.593 873.848 458.666 874.437 460.716C875.653 464.955 876.296 469.138 876.887 473.492C879.173 490.317 883.099 506.319 883.517 523.378C883.902 539.147 880.816 555.123 877.972 570.589C875.108 586.166 866.892 599.445 860.424 613.532C863.208 613.532 865.991 613.56 868.775 613.589Z" fill="#333333"/>
<path fill-rule="evenodd" clip-rule="evenodd" d="M502.705 577.782C499.638 578.65 484.829 580.287 484.832 584.935C484.834 587.723 499.623 587.668 502.24 587.971C502.396 584.576 502.55 581.179 502.705 577.782ZM535.393 609.858C543.926 611.481 555.51 609.199 560.966 601.673C563.515 598.156 564.724 592.808 565.554 588.611C566.348 584.612 568.793 574.632 567.129 570.883C565.085 566.279 545.478 571.09 539.768 571.619C529.806 572.538 519.505 572.647 509.537 571.997C509.537 582.293 509.011 592.328 515.064 601.19C519.432 607.584 527.634 609.093 535.393 609.858ZM533.677 622.576C524.405 619.181 514.671 621.387 508.633 611.43C507.101 608.903 505.811 606.187 504.884 603.381C504.431 602.151 504.079 600.892 503.828 599.603C504.3 596.827 503.283 596.045 500.779 597.254C495.865 596.299 490.476 599.673 485.299 598.678C472.743 596.266 475.024 578.274 483.45 572.046C485.114 570.815 486.777 570.473 488.682 569.865C492.882 568.526 495.156 570.021 498.997 569.641C502.102 569.334 502.955 566.078 506.292 564.643C508.476 563.705 511.508 563.777 513.805 563.683C525.823 563.189 537.879 563.193 549.974 562.41C555.616 562.045 561.706 562.938 567.233 561.974C569.82 561.522 569.448 559.799 571.899 561.31C574.435 562.875 573.34 568.662 573.212 570.97C572.472 584.313 571.677 598.624 564.532 610.289C557.995 620.963 545.13 622.055 533.677 622.576Z" fill="#333333"/>
<path fill-rule="evenodd" clip-rule="evenodd" d="M43.9902 626.252C46.9735 626.219 49.9558 626.188 52.9288 626.157C49.9419 626.19 46.9661 626.22 43.9902 626.252Z" fill="#333333"/>
<path fill-rule="evenodd" clip-rule="evenodd" d="M872.352 341.752C872.347 338.885 872.34 336.019 872.334 333.158C872.34 336.026 872.346 338.889 872.352 341.752Z" fill="#333333"/>
<path fill-rule="evenodd" clip-rule="evenodd" d="M113.498 353.524C113.489 356.316 113.479 359.108 113.47 361.894C113.479 359.1 113.488 356.311 113.498 353.524Z" fill="#333333"/>
<path fill-rule="evenodd" clip-rule="evenodd" d="M361.47 623.086C363.843 623.09 366.217 623.093 368.579 623.099C366.202 623.097 363.837 623.092 361.47 623.086Z" fill="#333333"/>
<path fill-rule="evenodd" clip-rule="evenodd" d="M217.362 622.517C219.735 622.524 222.108 622.532 224.47 622.541C222.093 622.534 219.728 622.525 217.362 622.517Z" fill="#333333"/>
<path fill-rule="evenodd" clip-rule="evenodd" d="M736.263 506.547C736.159 508.432 736.054 510.315 735.95 512.197C736.054 510.31 736.159 508.429 736.263 506.547Z" fill="#333333"/>
<path fill-rule="evenodd" clip-rule="evenodd" d="M868.776 613.589C866.942 613.569 865.107 613.551 863.273 613.531C865.116 612.763 866.95 612.797 868.776 613.589Z" fill="#333333"/>
<path fill-rule="evenodd" clip-rule="evenodd" d="M705.938 621.934C707.255 621.914 708.571 621.894 709.875 621.871C708.556 621.891 707.247 621.913 705.938 621.934Z" fill="#333333"/>
<path fill-rule="evenodd" clip-rule="evenodd" d="M871.638 365.01C871.671 363.585 871.703 362.161 871.736 360.742C871.703 362.168 871.671 363.589 871.638 365.01Z" fill="#333333"/>
<path fill-rule="evenodd" clip-rule="evenodd" d="M748.536 184.795C748.428 183.325 748.319 181.857 748.21 180.391C748.319 181.861 748.428 183.328 748.536 184.795Z" fill="#333333"/>
<path fill-rule="evenodd" clip-rule="evenodd" d="M872.288 347.363C872.306 345.89 872.323 344.418 872.341 342.95C872.323 344.425 872.306 345.894 872.288 347.363Z" fill="#333333"/>
<path fill-rule="evenodd" clip-rule="evenodd" d="M458.32 620.107C459.49 620.125 460.661 620.142 461.821 620.157C460.649 620.138 459.484 620.123 458.32 620.107Z" fill="#333333"/>
<path fill-rule="evenodd" clip-rule="evenodd" d="M759.799 622.509C760.943 622.532 762.087 622.555 763.221 622.579C762.073 622.557 760.936 622.532 759.799 622.509Z" fill="#333333"/>
<path fill-rule="evenodd" clip-rule="evenodd" d="M883.386 518.945C883.303 517.652 883.221 516.361 883.14 515.071C883.223 516.364 883.304 517.654 883.386 518.945Z" fill="#333333"/>
<path fill-rule="evenodd" clip-rule="evenodd" d="M862.846 623.765C863.777 623.759 864.708 623.754 865.629 623.752C864.695 623.758 863.77 623.762 862.846 623.765Z" fill="#333333"/>
<path fill-rule="evenodd" clip-rule="evenodd" d="M735.956 622.568C736.878 622.546 737.8 622.523 738.713 622.501C737.787 622.524 736.871 622.547 735.956 622.568Z" fill="#333333"/>
<path fill-rule="evenodd" clip-rule="evenodd" d="M528.651 621.864C529.667 621.858 530.681 621.853 531.687 621.845C530.669 621.851 529.66 621.857 528.651 621.864Z" fill="#333333"/>
<path fill-rule="evenodd" clip-rule="evenodd" d="M294.544 621.86C295.509 621.866 296.474 621.874 297.429 621.882C296.46 621.876 295.502 621.868 294.544 621.86Z" fill="#333333"/>
<path fill-rule="evenodd" clip-rule="evenodd" d="M237.594 622.016C238.578 621.961 239.56 621.905 240.535 621.852C239.548 621.907 238.571 621.961 237.594 622.016Z" fill="#333333"/>
<path fill-rule="evenodd" clip-rule="evenodd" d="M510.251 246.901C508.786 246.775 507.322 246.649 505.858 246.522C507.324 246.625 508.875 245.757 510.251 246.901Z" fill="#333333"/>
<path fill-rule="evenodd" clip-rule="evenodd" d="M883.524 614.146C882.08 614 880.636 613.854 879.192 613.707C880.637 613.854 882.08 614 883.524 614.146Z" fill="#333333"/>
<path fill-rule="evenodd" clip-rule="evenodd" d="M782.811 255.794C782.715 257.06 782.617 258.326 782.521 259.588C782.618 258.321 782.715 257.057 782.811 255.794Z" fill="#333333"/>
<path fill-rule="evenodd" clip-rule="evenodd" d="M872.651 308.557C872.749 307.357 872.847 306.157 872.946 304.962C872.847 306.164 872.748 307.36 872.651 308.557Z" fill="#333333"/>
<path fill-rule="evenodd" clip-rule="evenodd" d="M782.237 275.425C782.133 276.688 782.028 277.951 781.925 279.21C782.029 277.946 782.133 276.685 782.237 275.425Z" fill="#333333"/>
<path fill-rule="evenodd" clip-rule="evenodd" d="M872.039 356.985C872.03 355.764 872.021 354.543 872.012 353.326C872.8 354.543 872.768 355.762 872.039 356.985Z" fill="#333333"/>
<path fill-rule="evenodd" clip-rule="evenodd" d="M736.284 532.326C736.272 533.55 736.262 534.775 736.249 535.993C735.441 534.759 735.602 533.54 736.284 532.326Z" fill="#333333"/>
<path fill-rule="evenodd" clip-rule="evenodd" d="M828.313 390.74C828.172 389.501 828.031 388.262 827.89 387.027C828.031 388.268 828.172 389.504 828.313 390.74Z" fill="#333333"/>
<path fill-rule="evenodd" clip-rule="evenodd" d="M66.2719 277.052C65.3146 278.317 64.0106 277.451 62.8726 277.605C64.0069 277.42 65.1394 277.236 66.2719 277.052Z" fill="#333333"/>
<path fill-rule="evenodd" clip-rule="evenodd" d="M539.653 563.287C538.443 563.289 537.234 563.29 536.024 563.292C537.235 563.29 538.443 563.288 539.653 563.287Z" fill="#333333"/>
<path fill-rule="evenodd" clip-rule="evenodd" d="M732.879 282.252C732.992 283.281 733.104 284.31 733.217 285.335C733.104 284.305 732.992 283.278 732.879 282.252Z" fill="#333333"/>
<path fill-rule="evenodd" clip-rule="evenodd" d="M135.169 180.049C133.953 180.073 132.737 180.097 131.521 180.121C132.724 179.413 133.936 179.208 135.169 180.049Z" fill="#333333"/>
<path fill-rule="evenodd" clip-rule="evenodd" d="M782.207 293.225C782.128 294.304 782.05 295.383 781.972 296.457C782.05 295.378 782.128 294.302 782.207 293.225Z" fill="#333333"/>
<path fill-rule="evenodd" clip-rule="evenodd" d="M748.863 160.762C748.957 159.778 749.051 158.794 749.144 157.816C749.05 158.802 748.957 159.782 748.863 160.762Z" fill="#333333"/>
<path fill-rule="evenodd" clip-rule="evenodd" d="M739.308 157.68C739.213 158.747 739.117 159.815 739.023 160.879C739.118 159.81 739.213 158.744 739.308 157.68Z" fill="#333333"/>
<path fill-rule="evenodd" clip-rule="evenodd" d="M211.155 86.3953C209.918 86.5455 208.681 86.6956 207.444 86.8449C208.682 86.6947 209.918 86.5455 211.155 86.3953Z" fill="#333333"/>
<path fill-rule="evenodd" clip-rule="evenodd" d="M121.793 180.898C120.524 181.028 119.254 181.158 117.985 181.288C119.255 181.158 120.525 181.028 121.793 180.898Z" fill="#333333"/>
<path fill-rule="evenodd" clip-rule="evenodd" d="M817.542 184.026C817.619 183.033 817.696 182.04 817.773 181.052C817.696 182.046 817.618 183.036 817.542 184.026Z" fill="#333333"/>
<path fill-rule="evenodd" clip-rule="evenodd" d="M80.1211 347.894C80.8523 347.905 81.5826 347.915 82.3027 347.926C81.5687 347.915 80.8449 347.905 80.1211 347.894Z" fill="#333333"/>
<path fill-rule="evenodd" clip-rule="evenodd" d="M739.346 470.441C739.272 471.54 739.199 472.639 739.126 473.736C739.2 472.636 739.273 471.539 739.346 470.441Z" fill="#333333"/>
<path fill-rule="evenodd" clip-rule="evenodd" d="M813.936 256.469C813.906 255.409 813.877 254.35 813.847 253.293C813.878 254.354 813.907 255.411 813.936 256.469Z" fill="#333333"/>
<path fill-rule="evenodd" clip-rule="evenodd" d="M242.3 83.8879C241.172 83.8879 240.044 83.8888 238.918 83.8888C240.046 83.1138 241.173 83.1332 242.3 83.8879Z" fill="#333333"/>
<path fill-rule="evenodd" clip-rule="evenodd" d="M543.414 333.295C542.178 333.326 540.943 333.358 539.709 333.39C540.923 332.531 542.159 332.51 543.414 333.295Z" fill="#333333"/>
<path fill-rule="evenodd" clip-rule="evenodd" d="M651.371 620.064C652.103 620.079 652.836 620.095 653.559 620.113C652.823 620.099 652.097 620.081 651.371 620.064Z" fill="#333333"/>
<path fill-rule="evenodd" clip-rule="evenodd" d="M678.949 621.352C679.68 621.326 680.411 621.3 681.132 621.275C680.398 621.301 679.673 621.327 678.949 621.352Z" fill="#333333"/>
<path fill-rule="evenodd" clip-rule="evenodd" d="M247.362 621.861C248.125 621.88 248.887 621.9 249.64 621.918C248.874 621.899 248.118 621.88 247.362 621.861Z" fill="#333333"/>
<path fill-rule="evenodd" clip-rule="evenodd" d="M882.752 506.685C882.644 505.637 882.535 504.588 882.426 503.545C882.535 504.595 882.644 505.64 882.752 506.685Z" fill="#333333"/>
<path fill-rule="evenodd" clip-rule="evenodd" d="M783.141 330.077C783.228 331.075 783.314 332.074 783.4 333.066C783.313 332.066 783.227 331.072 783.141 330.077Z" fill="#333333"/>
<path fill-rule="evenodd" clip-rule="evenodd" d="M821.475 312.935C821.356 311.876 821.238 310.817 821.12 309.762C821.239 310.822 821.356 311.878 821.475 312.935Z" fill="#333333"/>
<path fill-rule="evenodd" clip-rule="evenodd" d="M253.55 622.492C254.319 622.48 255.089 622.468 255.85 622.458C255.077 622.471 254.313 622.481 253.55 622.492Z" fill="#333333"/>
<path fill-rule="evenodd" clip-rule="evenodd" d="M533.678 622.576C534.427 622.541 535.174 622.508 535.913 622.475C535.163 622.509 534.42 622.542 533.678 622.576Z" fill="#333333"/>
<path fill-rule="evenodd" clip-rule="evenodd" d="M815.218 235.626C815.184 234.554 815.151 233.481 815.117 232.41C815.151 233.484 815.185 234.554 815.218 235.626Z" fill="#333333"/>
<path fill-rule="evenodd" clip-rule="evenodd" d="M180.611 623.193C181.362 623.187 182.111 623.181 182.852 623.176C182.097 623.183 181.355 623.188 180.611 623.193Z" fill="#333333"/>
<path fill-rule="evenodd" clip-rule="evenodd" d="M814.904 623.182C815.675 623.19 816.447 623.198 817.209 623.206C816.433 623.199 815.669 623.191 814.904 623.182Z" fill="#333333"/>
<path fill-rule="evenodd" clip-rule="evenodd" d="M831.563 623.09C832.308 623.143 833.052 623.197 833.788 623.248C833.04 623.195 832.302 623.143 831.563 623.09Z" fill="#333333"/>
<path fill-rule="evenodd" clip-rule="evenodd" d="M838.292 623.077C839.05 623.1 839.809 623.123 840.557 623.14C839.797 623.116 839.044 623.097 838.292 623.077Z" fill="#333333"/>
<path fill-rule="evenodd" clip-rule="evenodd" d="M872.837 317.186C872.787 316.131 872.738 315.075 872.688 314.023C872.739 315.08 872.787 316.133 872.837 317.186Z" fill="#333333"/>
<path fill-rule="evenodd" clip-rule="evenodd" d="M363.738 609.248C366.044 609.129 368.352 609.008 370.66 608.887C368.352 609.008 366.044 609.128 363.738 609.248Z" fill="#333333"/>
<path fill-rule="evenodd" clip-rule="evenodd" d="M224.549 225.623C226.552 225.798 228.554 225.972 230.555 226.144C228.552 225.971 226.551 225.797 224.549 225.623Z" fill="#333333"/>
<path fill-rule="evenodd" clip-rule="evenodd" d="M790.008 312.724C790.07 314.636 790.134 316.548 790.196 318.454C790.133 316.541 790.07 314.633 790.008 312.724Z" fill="#333333"/>
<path fill-rule="evenodd" clip-rule="evenodd" d="M831.339 612.517C833.43 612.644 835.519 612.77 837.61 612.897C835.507 612.992 833.371 613.592 831.339 612.517Z" fill="#333333"/>
<path fill-rule="evenodd" clip-rule="evenodd" d="M818.967 386.395C818.983 384.572 818.998 382.748 819.013 380.929C818.997 382.754 818.983 384.574 818.967 386.395Z" fill="#333333"/>
<path fill-rule="evenodd" clip-rule="evenodd" d="M813.615 443.69C815.449 443.714 817.285 443.739 819.118 443.763C817.283 443.738 815.449 443.714 813.615 443.69Z" fill="#333333"/>
<path fill-rule="evenodd" clip-rule="evenodd" d="M351.827 411.63C351.78 413.02 351.735 414.41 351.691 415.793C351.738 414.401 351.782 413.016 351.827 411.63Z" fill="#333333"/>
<path fill-rule="evenodd" clip-rule="evenodd" d="M844.146 352.784C844.071 354.168 843.996 355.55 843.923 356.926C843.999 355.542 844.073 354.163 844.146 352.784Z" fill="#333333"/>
<path fill-rule="evenodd" clip-rule="evenodd" d="M805.009 606.363C806.344 606.272 807.678 606.182 809.01 606.096C808.006 606.9 806.997 606.967 805.009 606.363Z" fill="#333333"/>
<path fill-rule="evenodd" clip-rule="evenodd" d="M796.079 425.583C796.17 427.074 796.262 428.565 796.353 430.051C796.261 428.559 796.17 427.071 796.079 425.583Z" fill="#333333"/>
<path fill-rule="evenodd" clip-rule="evenodd" d="M297.098 190.286C297.112 188.846 297.126 187.406 297.141 185.972C297.127 187.414 297.113 188.85 297.098 190.286Z" fill="#333333"/>
<path fill-rule="evenodd" clip-rule="evenodd" d="M797.694 443.991L802.668 443.882C801.026 444.676 799.368 444.704 797.694 443.991Z" fill="#333333"/>
<path fill-rule="evenodd" clip-rule="evenodd" d="M843.582 454.616C842.409 454.626 841.237 454.635 840.072 454.647C841.248 454.638 842.416 454.627 843.582 454.616Z" fill="#333333"/>
<path fill-rule="evenodd" clip-rule="evenodd" d="M414.056 606.936C415.68 606.957 417.304 606.979 418.927 606.999C417.291 607.82 415.666 607.935 414.056 606.936Z" fill="#333333"/>
<path fill-rule="evenodd" clip-rule="evenodd" d="M790.58 325.002C790.66 326.499 790.741 327.995 790.821 329.487C790.741 327.989 790.66 326.496 790.58 325.002Z" fill="#333333"/>
<path fill-rule="evenodd" clip-rule="evenodd" d="M264.605 229.136C265.995 228.451 267.395 228.336 268.809 229.062C267.407 229.087 266.007 229.112 264.605 229.136Z" fill="#333333"/>
<path fill-rule="evenodd" clip-rule="evenodd" d="M745.138 342.281C745.253 343.542 745.367 344.805 745.482 346.063C745.367 344.799 745.253 343.539 745.138 342.281Z" fill="#333333"/>
<path fill-rule="evenodd" clip-rule="evenodd" d="M862.49 312.829C861.777 311.595 861.802 310.366 862.526 309.149C862.514 310.377 862.502 311.604 862.49 312.829Z" fill="#333333"/>
<path fill-rule="evenodd" clip-rule="evenodd" d="M790.807 269.961C790.807 271.21 790.808 272.459 790.808 273.704C790.807 272.453 790.807 271.207 790.807 269.961Z" fill="#333333"/>
<path fill-rule="evenodd" clip-rule="evenodd" d="M840.605 443.093C842.035 442.654 843.465 442.034 844.889 443.108C843.461 443.103 842.034 443.098 840.605 443.093Z" fill="#333333"/>
<path fill-rule="evenodd" clip-rule="evenodd" d="M181.263 608.686C182.581 608.106 183.896 607.802 185.194 608.73C183.883 608.715 182.574 608.701 181.263 608.686Z" fill="#333333"/>
<path fill-rule="evenodd" clip-rule="evenodd" d="M450.823 606.827C452.233 606.211 453.639 605.873 455.03 606.87C453.627 606.855 452.225 606.841 450.823 606.827Z" fill="#333333"/>
<path fill-rule="evenodd" clip-rule="evenodd" d="M137.126 424.446C137.232 425.718 137.339 426.991 137.443 428.261C137.337 426.987 137.231 425.717 137.126 424.446Z" fill="#333333"/>
<path fill-rule="evenodd" clip-rule="evenodd" d="M464.295 351.129C465.681 350.624 467.063 350.361 468.425 351.204C467.047 351.178 465.671 351.154 464.295 351.129Z" fill="#333333"/>
<path fill-rule="evenodd" clip-rule="evenodd" d="M790.558 389.018C790.635 390.262 790.711 391.506 790.787 392.748C790.711 391.503 790.634 390.26 790.558 389.018Z" fill="#333333"/>
<path fill-rule="evenodd" clip-rule="evenodd" d="M136.231 276.756C136.116 277.758 136.001 278.761 135.887 279.758C136.002 278.754 136.116 277.755 136.231 276.756Z" fill="#333333"/>
<path fill-rule="evenodd" clip-rule="evenodd" d="M55.8695 567.388C55.7981 568.365 55.7277 569.34 55.6572 570.31C55.7304 569.333 55.7999 568.36 55.8695 567.388Z" fill="#333333"/>
<path fill-rule="evenodd" clip-rule="evenodd" d="M819.581 395.602C819.503 394.594 819.426 393.585 819.348 392.581C819.426 393.592 819.503 394.597 819.581 395.602Z" fill="#333333"/>
<path fill-rule="evenodd" clip-rule="evenodd" d="M351.359 420.213C351.589 420.948 351.82 421.683 352.051 422.418C350.51 422.791 350.279 422.055 351.359 420.213Z" fill="#333333"/>
<path fill-rule="evenodd" clip-rule="evenodd" d="M443.99 349.469C445.245 349.463 446.5 349.458 447.755 349.453C446.502 350.048 445.248 350.457 443.99 349.469Z" fill="#333333"/>
<path fill-rule="evenodd" clip-rule="evenodd" d="M137.83 430.472C137.872 431.585 137.915 432.698 137.956 433.807C137.912 432.693 137.87 431.583 137.83 430.472Z" fill="#333333"/>
<path fill-rule="evenodd" clip-rule="evenodd" d="M748.184 442.202C748.229 443.227 748.274 444.251 748.319 445.27C748.276 444.243 748.229 443.223 748.184 442.202Z" fill="#333333"/>
<path fill-rule="evenodd" clip-rule="evenodd" d="M125.391 611.151C126.582 610.361 127.776 610.429 128.971 611.138C127.778 611.143 126.584 611.148 125.391 611.151Z" fill="#333333"/>
<path fill-rule="evenodd" clip-rule="evenodd" d="M156.75 262.445C156.814 263.49 156.879 264.537 156.946 265.576C156.882 264.529 156.816 263.487 156.75 262.445Z" fill="#333333"/>
<path fill-rule="evenodd" clip-rule="evenodd" d="M119.195 611.26C120.433 611.264 121.672 611.27 122.909 611.276C121.667 612.121 120.43 612.161 119.195 611.26Z" fill="#333333"/>
<path fill-rule="evenodd" clip-rule="evenodd" d="M804.799 246.029C804.81 244.966 804.819 243.905 804.828 242.845C804.818 243.909 804.809 244.968 804.799 246.029Z" fill="#333333"/>
<path fill-rule="evenodd" clip-rule="evenodd" d="M236.373 227.449C237.557 227.604 238.742 227.759 239.925 227.913C238.741 227.758 237.557 227.604 236.373 227.449Z" fill="#333333"/>
<path fill-rule="evenodd" clip-rule="evenodd" d="M131.857 319.137C131.873 320.129 131.889 321.122 131.907 322.109C131.892 321.115 131.875 320.126 131.857 319.137Z" fill="#333333"/>
<path fill-rule="evenodd" clip-rule="evenodd" d="M812.773 318.995C812.708 317.984 812.643 316.974 812.578 315.968C812.643 316.98 812.709 317.988 812.773 318.995Z" fill="#333333"/>
<path fill-rule="evenodd" clip-rule="evenodd" d="M536.532 610.075C537.994 610.208 539.455 610.34 540.916 610.472C539.454 610.339 537.994 610.208 536.532 610.075Z" fill="#333333"/>
<path fill-rule="evenodd" clip-rule="evenodd" d="M531.649 572.229C530.859 572.241 530.07 572.254 529.287 572.27C530.079 572.26 530.864 572.244 531.649 572.229Z" fill="#333333"/>
<path fill-rule="evenodd" clip-rule="evenodd" d="M531.716 609.496C532.941 609.617 534.169 609.738 535.394 609.859C534.168 609.737 532.941 609.617 531.716 609.496Z" fill="#333333"/>
<path fill-rule="evenodd" clip-rule="evenodd" d="M311.128 526.922C312.723 535.937 298.718 544.754 297.608 531.939C297.202 527.252 300.334 523.958 303.842 521.093C308.821 517.028 311.602 520.92 311.128 526.922Z" fill="#333333"/>
<path fill-rule="evenodd" clip-rule="evenodd" d="M156.756 416.935C160.055 418.286 185.262 426.503 172.169 430.636C168.703 431.73 163.464 431.893 160.459 429.965C156.845 427.646 153.199 420.801 156.756 416.935Z" fill="#333333"/>
<path fill-rule="evenodd" clip-rule="evenodd" d="M162.959 294.853C171.515 293.859 179.398 307.917 168.85 307.46C161.171 307.128 150.845 294.853 162.959 294.853Z" fill="#333333"/>
<path fill-rule="evenodd" clip-rule="evenodd" d="M193.566 329.321C200.71 335.556 187.467 349.512 182.21 344.111C179.525 341.352 182.001 335.408 184.217 333.1C186.492 330.731 190.538 330.286 193.566 329.321Z" fill="#333333"/>
<path fill-rule="evenodd" clip-rule="evenodd" d="M214.835 490.975C210.617 491.646 192.069 497.709 195.937 486.696C197.413 482.496 201.528 483.742 205.289 483.935C211.352 484.245 214.835 483.954 214.835 490.975Z" fill="#333333"/>
<path fill-rule="evenodd" clip-rule="evenodd" d="M202.617 519.341C208.931 522.721 199.701 541.631 194.468 537.608C187.207 532.025 197.138 521.04 202.617 519.341Z" fill="#333333"/>
<path fill-rule="evenodd" clip-rule="evenodd" d="M230.154 504.139C233.225 502.885 247.698 516.812 242.188 520.686C239.364 522.672 234.014 519.268 232.312 517.215C229.12 513.366 228.831 508.617 230.154 504.139Z" fill="#333333"/>
<path fill-rule="evenodd" clip-rule="evenodd" d="M146.651 390.307C149.789 390.823 155.207 390.986 155.41 395.397C155.588 399.274 150.729 400.53 147.308 400.834C143.759 401.15 139.06 400.147 138.993 395.684C138.921 390.867 146.54 391.158 146.651 390.307Z" fill="#333333"/>
<path fill-rule="evenodd" clip-rule="evenodd" d="M224.034 582.262C227.375 584.292 242.964 591.599 236.282 596.878C233.781 598.853 226.201 594.773 224.495 592.699C222.459 590.224 220.469 584.425 224.034 582.262Z" fill="#333333"/>
<path fill-rule="evenodd" clip-rule="evenodd" d="M267.367 529.239C266.884 521.173 280.487 517.962 277.667 529.411C276.871 532.639 276.102 537.539 272.113 537.726C267.397 537.948 267.227 532.367 267.367 529.239Z" fill="#333333"/>
<path fill-rule="evenodd" clip-rule="evenodd" d="M225.346 388.98C225.44 395.098 213.721 400.494 213.63 390.796C213.549 382.13 225.783 379.593 225.346 388.98Z" fill="#333333"/>
<path fill-rule="evenodd" clip-rule="evenodd" d="M217.607 357.113C220.495 358.043 224.333 358.523 224.586 362.193C224.856 366.077 221.249 367.806 218.004 367.589C215.342 367.41 211.403 365.439 210.92 362.55C210.211 358.309 214.348 358.032 217.607 357.113Z" fill="#333333"/>
<path fill-rule="evenodd" clip-rule="evenodd" d="M163.908 469.135C163.859 464.086 173.974 458.018 175.837 463.876C176.433 465.751 171.665 474.157 170.08 474.786C165.884 476.452 165.299 472.57 163.908 469.135Z" fill="#333333"/>
<path fill-rule="evenodd" clip-rule="evenodd" d="M246.793 553.168C243.375 556.228 233.122 564.825 233.888 553.285C234.378 545.913 247.694 546.298 246.793 553.168Z" fill="#333333"/>
<path fill-rule="evenodd" clip-rule="evenodd" d="M413.834 586.152C414.955 581.299 430.995 589.717 425.642 595.846C423.846 597.903 419.148 596.042 417.342 594.823C413.768 592.409 413.69 590.182 413.834 586.152Z" fill="#333333"/>
<path fill-rule="evenodd" clip-rule="evenodd" d="M324.463 482.283C325.088 480.12 325.784 476.295 327.846 474.915C331.579 472.417 334.83 476.185 334.831 480.156C334.831 487.563 326.403 489.899 324.463 482.283Z" fill="#333333"/>
<path fill-rule="evenodd" clip-rule="evenodd" d="M284.707 568.89C288.872 569.845 298.145 579.972 292.767 584.103C287.591 588.079 280.707 571.915 284.707 568.89Z" fill="#333333"/>
<path fill-rule="evenodd" clip-rule="evenodd" d="M288.672 492.231C294.027 492.658 301.387 501.333 293.064 502.712C286.554 503.791 278.982 494.356 288.672 492.231Z" fill="#333333"/>
<path fill-rule="evenodd" clip-rule="evenodd" d="M337.151 532.149C338.494 527.624 351.774 532.472 351.028 537.455C350.631 540.103 345.202 540.725 342.347 540.025C338.145 538.993 337.054 536.236 337.151 532.149Z" fill="#333333"/>
<path fill-rule="evenodd" clip-rule="evenodd" d="M180.606 279.42C180.702 273.57 191.939 271.186 192.762 277.081C193.506 282.407 180.465 288.075 180.606 279.42Z" fill="#333333"/>
<path fill-rule="evenodd" clip-rule="evenodd" d="M333.438 592.426C334.248 589.485 334.597 585.944 338.27 585.557C342.476 585.113 342.352 588.339 341.858 591.682C340.512 600.778 335.374 601.232 333.438 592.426Z" fill="#333333"/>
<path fill-rule="evenodd" clip-rule="evenodd" d="M155.987 349.021C150.129 350.343 139.4 339.057 145.957 336.635C150.578 334.927 155.987 345.616 155.987 349.021Z" fill="#333333"/>
<path fill-rule="evenodd" clip-rule="evenodd" d="M230.704 436.689C227.722 438.094 227.036 438.946 224.746 436.641C222.751 434.634 222.839 429.042 224.551 426.954C231.107 418.959 230.953 433.454 230.704 436.689Z" fill="#333333"/>
<path fill-rule="evenodd" clip-rule="evenodd" d="M255.028 420.474C258.137 420.87 267.376 429.636 262.565 433.12C256.67 437.389 253.334 424.017 255.028 420.474Z" fill="#333333"/>
<path fill-rule="evenodd" clip-rule="evenodd" d="M322.299 422.782C320.039 431.489 314.397 425.63 314.717 419.042C315.231 408.49 321.077 417.681 322.299 422.782Z" fill="#333333"/>
<path fill-rule="evenodd" clip-rule="evenodd" d="M356.6 562.611C360.424 564.193 365.613 578.815 360.152 579.6C354.018 580.479 356.06 565.655 356.6 562.611Z" fill="#333333"/>
<path fill-rule="evenodd" clip-rule="evenodd" d="M308.848 554.396C313.224 552.919 314.827 562.152 312.284 563.867C306.689 567.64 307.869 556.575 308.848 554.396Z" fill="#333333"/>
<path fill-rule="evenodd" clip-rule="evenodd" d="M267.367 529.239C267.311 530.464 267.257 531.69 267.199 532.908C267.254 531.68 267.31 530.459 267.367 529.239Z" fill="#333333"/>
<path fill-rule="evenodd" clip-rule="evenodd" d="M413.834 586.151C413.789 587.408 413.744 588.665 413.696 589.915C413.74 588.656 413.787 587.404 413.834 586.151Z" fill="#333333"/>
<path fill-rule="evenodd" clip-rule="evenodd" d="M337.151 532.149C337.126 533.215 337.101 534.281 337.073 535.341C337.097 534.272 337.125 533.21 337.151 532.149Z" fill="#333333"/>
<path fill-rule="evenodd" clip-rule="evenodd" d="M821.101 513.8C830.172 513.509 840.291 510.094 849.205 511.18C851.659 511.48 857.308 512.098 853.376 515.739C851.496 517.48 842.494 516.58 839.77 517.157C823.115 520.685 804.209 522.96 787.132 522.666C779.138 522.529 771.084 521.888 763.093 521.466C755.108 521.043 754.324 517.797 763.308 516.764C772.64 515.693 782.215 516.09 791.593 516.079C801.452 516.066 811.262 514.459 821.101 513.8Z" fill="#333333"/>
<path fill-rule="evenodd" clip-rule="evenodd" d="M841.015 491.939C840.142 494.425 839.376 500.132 836.03 500.507C831.345 501.03 830.569 492.982 830.741 490.039C830.951 486.486 832.229 480.585 836.643 481.816C840.371 482.854 840.745 489.095 841.015 491.939Z" fill="#333333"/>
<path fill-rule="evenodd" clip-rule="evenodd" d="M812.648 490.118C813.333 487.455 813.669 481.451 817.434 481.247C821.641 481.02 822.843 487.275 822.815 490.273C822.788 493.118 821.736 498.492 818.385 499.149C813.843 500.04 813.438 493.16 812.648 490.118Z" fill="#333333"/>
<path fill-rule="evenodd" clip-rule="evenodd" d="M765.406 494.894C764.043 498.094 763.141 502.503 758.922 500.32C755.66 498.633 755.205 491.827 755.821 488.711C756.458 485.483 757.808 481.78 761.516 483.232C765.792 484.908 765.361 491.37 765.406 494.894Z" fill="#333333"/>
<path fill-rule="evenodd" clip-rule="evenodd" d="M801.181 491.939C797.16 504.132 789.825 495.882 792.61 486.778C795.522 477.263 800.811 486.505 801.181 491.939Z" fill="#333333"/>
<path fill-rule="evenodd" clip-rule="evenodd" d="M781.589 492.542C780.472 494.689 779.284 499.321 776.274 498.833C772.584 498.234 772.465 491.13 772.87 488.484C773.223 486.168 774.263 482.309 777.352 482.359C781.815 482.431 781.516 489.763 781.589 492.542Z" fill="#333333"/>
<path fill-rule="evenodd" clip-rule="evenodd" d="M861.801 494.883C858.808 501.601 854.69 495.813 856.008 491.042C857.963 483.965 861.632 490.235 861.801 494.883Z" fill="#333333"/>
<path fill-rule="evenodd" clip-rule="evenodd" d="M788.491 516.088C785.222 516.075 781.951 516.063 778.683 516.051C781.954 515.434 785.226 515.194 788.491 516.088Z" fill="#333333"/>
<path fill-rule="evenodd" clip-rule="evenodd" d="M853.458 511.153C850.622 511.172 847.787 511.189 844.953 511.208C847.783 510.359 850.618 510.34 853.458 511.153Z" fill="#333333"/>
<path fill-rule="evenodd" clip-rule="evenodd" d="M765.406 494.894C765.385 493.264 765.363 491.634 765.344 490.008C766.182 491.629 766.124 493.257 765.406 494.894Z" fill="#333333"/>
<path fill-rule="evenodd" clip-rule="evenodd" d="M783.194 522.632C784.51 522.644 785.826 522.655 787.131 522.667C785.812 522.655 784.503 522.644 783.194 522.632Z" fill="#333333"/>
<path fill-rule="evenodd" clip-rule="evenodd" d="M761.095 521.466C762.428 521.466 763.762 521.465 765.085 521.466C763.747 521.466 762.421 521.466 761.095 521.466Z" fill="#333333"/>
<path fill-rule="evenodd" clip-rule="evenodd" d="M772.024 516.229C770.17 516.381 768.316 516.533 766.464 516.685C768.317 516.533 770.17 516.381 772.024 516.229Z" fill="#333333"/>
<path fill-rule="evenodd" clip-rule="evenodd" d="M797.083 516.067C795.253 516.071 793.423 516.075 791.593 516.079C793.422 515.307 795.252 515.285 797.083 516.067Z" fill="#333333"/>
<path fill-rule="evenodd" clip-rule="evenodd" d="M781.589 492.542C781.544 490.843 781.499 489.145 781.457 487.448C781.502 489.148 781.546 490.845 781.589 492.542Z" fill="#333333"/>
<path fill-rule="evenodd" clip-rule="evenodd" d="M755.82 488.711C755.81 490.368 755.8 492.025 755.787 493.675C755.797 492.016 755.808 490.364 755.82 488.711Z" fill="#333333"/>
<path fill-rule="evenodd" clip-rule="evenodd" d="M831.5 513.184C829.882 513.331 828.265 513.476 826.648 513.623C828.267 513.476 829.884 513.331 831.5 513.184Z" fill="#333333"/>
<path fill-rule="evenodd" clip-rule="evenodd" d="M861.801 494.883C861.748 493.435 861.696 491.988 861.645 490.543C861.697 491.991 861.748 493.436 861.801 494.883Z" fill="#333333"/>
<path fill-rule="evenodd" clip-rule="evenodd" d="M792.972 522.68C794.098 522.659 795.224 522.638 796.339 522.618C795.209 522.64 794.09 522.661 792.972 522.68Z" fill="#333333"/>
<path fill-rule="evenodd" clip-rule="evenodd" d="M841.015 491.939C840.916 490.898 840.817 489.857 840.719 488.821C840.818 489.863 840.917 490.9 841.015 491.939Z" fill="#333333"/>
<path fill-rule="evenodd" clip-rule="evenodd" d="M801.181 491.938C801.109 490.87 801.036 489.802 800.963 488.736C801.037 489.805 801.109 490.872 801.181 491.938Z" fill="#333333"/>
<path fill-rule="evenodd" clip-rule="evenodd" d="M220.442 178.093C216.013 176.931 215.182 170.704 215.894 166.88C216.701 165.037 217.508 163.195 218.316 161.352C218 160.67 217.685 159.989 217.369 159.308C217.774 155.512 216.739 153.863 221.1 155.4C229.2 158.257 230.494 177.8 220.442 178.093Z" fill="#333333"/>
<path fill-rule="evenodd" clip-rule="evenodd" d="M286.002 166.055C289.65 165.767 296.277 170.018 292.646 174.13C290.395 176.678 282.98 175.473 279.955 176.005C275.943 176.71 271.759 177.676 273.93 171.664C275.634 166.944 281.721 165.931 286.002 166.055Z" fill="#333333"/>
<path fill-rule="evenodd" clip-rule="evenodd" d="M282.162 194.329C278.456 191.356 280.111 177.814 285.751 180.251C291.553 182.758 285.255 192.375 282.162 194.329Z" fill="#333333"/>
<path fill-rule="evenodd" clip-rule="evenodd" d="M215.894 166.88C215.894 168.305 215.893 169.731 215.89 171.149C215.117 169.721 215.141 168.3 215.894 166.88Z" fill="#333333"/>
<path fill-rule="evenodd" clip-rule="evenodd" d="M220.441 178.093C221.197 178.072 221.953 178.049 222.699 178.03C221.94 178.054 221.191 178.074 220.441 178.093Z" fill="#333333"/>
<path fill-rule="evenodd" clip-rule="evenodd" d="M678.058 568.086C677.711 574.246 671.099 569.692 671.568 565.571C672.419 558.093 676.646 565.483 678.058 568.086Z" fill="#333333"/>
</svg>
