<svg width="651" height="489" viewBox="0 0 651 489" fill="none" xmlns="http://www.w3.org/2000/svg">
<path fill-rule="evenodd" clip-rule="evenodd" d="M415.14 402.092C392.596 407.019 370.051 411.946 347.507 416.874C344.333 417.567 341.16 418.26 337.986 418.954C338.93 389.864 339.875 360.774 340.819 331.684C340.955 327.483 341.092 323.281 341.228 319.079C336.004 323.652 330.521 328.035 325.523 332.85C319.125 339.014 312.972 345.394 306.387 351.375C295.058 361.662 283.157 371.639 270.039 379.582C255.785 388.212 239.342 393.764 222.791 395.681C216.695 396.388 211.175 396.215 205.135 395.586C199.88 395.039 194.625 394.491 189.369 393.943C187.253 393.723 185.135 393.502 183.018 393.282C182.507 393.229 180.842 393.349 180.435 393.004C179.694 392.38 179.307 389.544 179.015 388.643C177.799 384.893 176.591 381.141 175.39 377.387C172.126 367.183 168.908 356.964 165.8 346.711C163.139 337.934 160.341 329.119 158.354 320.158C158.121 319.107 157.611 317.732 157.697 316.646C157.822 315.06 157.071 315.394 159.162 315.371C164.079 315.317 169.279 316.512 174.2 316.861C179.268 317.221 184.347 317.435 189.428 317.486C216.334 317.76 247.301 314.844 269.098 297.423C276.406 291.583 283.747 284.831 289.41 277.322C297.395 266.734 301.747 252.636 302.808 239.572C304 224.892 301.525 209.751 297.919 195.54C297.189 192.665 297.353 191.589 297.98 188.58C298.501 186.081 299.021 183.583 299.542 181.085C299.686 180.392 299.842 177.477 300.415 177.05C301.419 176.303 306.257 177.123 307.433 177.138L322.011 177.32C331.4 177.438 340.788 177.555 350.176 177.673C355.052 177.734 359.923 178.496 364.768 178.999C375.155 180.079 385.541 181.158 395.928 182.238C398.009 182.454 400.091 182.671 402.173 182.887C400.838 194.708 399.505 206.528 398.17 218.348C397.175 227.163 400.644 235.902 402.493 244.519C406.658 263.93 410.715 283.624 412.26 303.448C413.713 322.113 413.698 340.978 414.172 359.687C414.53 373.821 414.855 387.956 415.14 402.092Z" fill="#687DAC"/>
<path fill-rule="evenodd" clip-rule="evenodd" d="M270.193 45.3391C270.193 44.2539 270.517 43.494 271.126 42.5947C272.533 43.8168 274.737 49.8771 277.081 45.9646C277.547 45.1865 277.569 42.2883 279.168 43.1926C279.919 43.6171 279.714 45.6626 279.661 46.3559C279.471 48.824 278.35 52.2674 275.166 52.1267C271.917 51.9835 270.106 48.039 270.193 45.3391Z" fill="#333333"/>
<path fill-rule="evenodd" clip-rule="evenodd" d="M272.154 39.9174C266.75 40.9141 268.907 36.0528 272.865 35.6494C274.332 35.4998 276.863 35.5783 276.515 37.7448C276.208 39.661 273.582 39.6536 272.154 39.9174Z" fill="#333333"/>
<path fill-rule="evenodd" clip-rule="evenodd" d="M257.182 55.9375C255.48 56.0989 252.677 53.7 255.502 53.4077C256.807 53.273 259.547 55.7122 257.182 55.9375Z" fill="#333333"/>
<path fill-rule="evenodd" clip-rule="evenodd" d="M553.881 84.363C552.579 85.3595 548.678 82.154 547.402 81.5876C542.436 79.3811 536.726 78.161 531.389 77.2097C520.823 75.327 509.993 74.2668 499.265 73.9291C492.722 73.7226 486.527 73.9514 480.055 74.649C478.444 74.8223 467.543 76.6414 467.276 73.6532C466.807 68.4063 495.643 68.6554 498.389 68.6643C510.873 68.707 522.149 70.0928 534.276 72.8128C537.556 73.5487 557.729 81.4168 553.881 84.363Z" fill="#333333"/>
<path fill-rule="evenodd" clip-rule="evenodd" d="M209.147 171.055C202.581 172.998 195.09 172.733 188.929 169.604C187.871 169.066 185.299 167.924 186.662 166.581C188.128 165.137 192.234 167.587 193.833 167.9C201.593 169.423 211.431 166.406 216.928 160.747C219.656 157.939 221.196 154.391 221.846 150.568C222.216 148.389 222.406 146.083 222.273 143.873C222.132 141.532 221.175 139.015 221.816 136.685C224.678 138.382 224.712 142.851 224.915 145.737C225.173 149.377 225.15 152.876 224.128 156.421C222.024 163.722 216.378 168.917 209.147 171.055Z" fill="#333333"/>
<path fill-rule="evenodd" clip-rule="evenodd" d="M91.83 365.511C92.0386 366.069 92.2349 366.59 92.4643 367.203C93.3494 365.576 93.3494 365.576 91.83 365.511ZM100.083 407.986C103.367 409.503 107.026 405.427 108.775 403.156C111.689 399.371 112.986 395.008 114.134 390.45C115.406 385.408 116.874 380.424 118.055 375.358C118.581 373.099 119.083 370.834 119.674 368.591C120.163 366.734 121.985 363.427 121.218 361.5C119.921 358.24 113.552 357.343 113.986 352.972C114.385 348.954 121.393 353.245 123.076 354.097C126.92 356.044 124.921 353.586 123.064 352.162C121.657 351.083 115.112 346.41 118.538 344.053C120.762 342.523 125.599 347.182 127.441 348.04C129.377 348.941 130.082 348.705 131.65 347.117C132.767 345.987 134.426 344.557 135.289 343.261C137.42 340.057 134.565 333.777 134.126 330.106C134.028 329.289 134.643 324.812 134.073 324.282C133.322 323.586 130.11 324.076 128.929 323.899C124.695 323.262 120.519 322.782 116.278 322.253C113.477 321.902 105.146 319.793 103.497 322.698C102.188 325.002 102.607 329.424 102.607 331.887C102.605 337.071 102.589 342.145 102.098 347.346C101.026 358.705 100.222 370.057 99.1894 381.417C98.6879 386.93 97.6505 392.38 97.1302 397.893C96.8075 401.311 96.2976 406.238 100.083 407.986ZM163.858 324.101C166.968 331.878 169.54 339.891 172.23 347.818C173.474 351.483 174.622 355.184 175.884 358.842C177.093 362.346 179.038 365.503 180.036 369.087C181.919 375.854 183.503 382.576 185.733 389.229C186.054 390.187 185.866 392.308 186.442 392.986C187.15 393.818 190.286 393.694 191.396 393.834C195.938 394.405 200.526 394.846 205.109 394.654C200.821 389.248 196.011 384.284 191.081 379.45C186.764 375.216 180.933 370.409 180.23 363.958C179.295 355.386 188.239 357.109 193.803 357.628C201.566 358.353 210.364 361.5 218.133 359.755C212.749 352.474 204.587 347.044 197.828 341.117C195.191 338.805 192.418 336.264 191.071 332.938C190.386 331.243 190.045 329.288 190.51 327.488C191.075 325.303 192.33 324.906 194.149 323.873C183.364 323.873 172.457 323.488 162.184 319.785C161.776 321.506 163.28 322.656 163.858 324.101ZM212.074 392.795C213.957 395.356 217.35 394.658 220.142 394.497C224.243 394.26 228.332 393.761 232.357 392.94C236.42 392.11 240.497 390.998 244.373 389.51C245.188 389.196 247.726 388.481 248.024 387.5C248.295 386.612 246.73 384.791 246.389 384.113C245.302 381.947 244.763 378.088 247.218 376.543C249.246 375.268 252.24 376.546 254.286 377.148C257.315 378.041 260.928 379.844 264.004 378.473C267.93 376.722 271.817 374.206 275.507 372.002C268.841 365.944 262.293 359.767 255.457 353.897C249.195 348.519 241.652 342.329 237.738 334.921C236.264 332.131 235.31 328.177 237.117 325.271C238.738 322.665 242.006 322.574 244.761 322.812C252.945 323.521 261.007 325.554 269.058 327.071C271.768 327.582 289.204 331.625 289.25 327.226C289.26 326.277 287.454 324.115 286.992 323.361C285.945 321.65 284.875 319.957 283.743 318.3C281.106 314.439 278.24 310.743 275.397 307.033C273.962 305.161 272.129 301.26 269.383 301.676C268.13 301.865 266.876 303.259 265.866 303.981C264.125 305.224 262.32 306.375 260.467 307.444C252.977 311.764 244.706 313.957 236.372 315.995C234.482 316.457 225.458 317.387 224.571 319.25C224.129 320.181 225.148 322.38 225.174 323.387C225.214 324.903 224.88 326.477 224.047 327.761C221.629 331.488 216.342 331.292 212.448 331.182C207.502 331.041 202.437 330.797 197.514 331.401C202.412 335.934 207.494 340.26 212.607 344.545C216.211 347.564 220.226 350.425 223.058 354.226C225.482 357.48 227.285 363.017 224.19 366.523C220.876 370.275 213.406 368.613 209.204 367.973C204.304 367.228 199.448 366.315 194.591 365.342C192.945 365.013 191.245 364.632 189.563 364.544C187.551 364.439 186.814 364.324 188.208 366.192C191.67 370.83 196.878 374.164 200.524 378.693C202.242 380.826 204.244 382.525 206.049 384.572C208.299 387.122 210.064 390.062 212.074 392.795ZM279.475 367.449C281.842 369.856 284.513 366.434 286.432 364.865C289.308 362.513 292.116 360.078 295.035 357.778C300.564 353.422 306.319 349.38 311.517 344.615C313.155 343.113 315.847 341.431 316.346 339.129C316.98 336.193 315.455 333.568 317.014 330.616C319.967 325.024 326.074 329.599 330.057 326.38C332.103 324.727 333.544 322.328 335.157 320.281C337.076 317.845 339.527 315.481 340.632 312.547C341.781 309.495 341.932 308.035 339.792 305.455C337.487 302.676 334.691 300.137 332.841 297.01C331.567 294.856 330.527 291.689 332.529 289.603C334.146 287.919 336.947 288.373 339.04 288.502C342.087 288.691 345.119 288.975 348.115 289.58C350.482 290.058 355.004 291.309 357.276 290.009C362.637 286.945 352.999 279.051 350.864 276.709C346.094 271.475 341.092 266.46 336.132 261.409C331.545 256.738 326.913 252.062 322.606 247.129C319.4 243.457 315.643 238.274 317.362 233.089C318.756 228.887 323.447 228.754 327.18 229.046C332.648 229.475 338.088 230.37 343.531 231.02C347.589 231.504 355.398 233.028 358.859 229.803C362.437 226.47 354.798 216.568 352.824 213.602C348.651 207.333 343.843 201.516 338.862 195.88C336.443 193.143 333.978 190.447 331.51 187.753C329.369 185.413 327.405 182.465 324.945 180.456C322.253 178.259 318.234 178.517 314.936 178.186C311.467 177.837 307.778 177.324 304.291 177.336C301.115 177.347 301.9 180.406 301.766 183.057C301.734 183.692 300.878 189.326 301.842 189.415C301.948 188.16 302.053 186.905 302.158 185.651C304.87 186.764 306.882 189.16 308.985 191.107C311.083 193.049 313.932 195.027 314.818 197.884C317.316 205.949 307.344 203.088 303.166 202.269C304.106 211.429 306.448 220.333 307.74 229.43C308.281 233.243 308.06 236.693 307.638 240.484C307.398 242.645 307.426 244.827 307.162 246.986C306.954 248.699 306.156 250.658 306.475 252.38C307.057 255.532 311.036 258.84 312.804 261.507C315.15 265.045 317.22 268.879 318.305 273.009C320.265 280.465 316.926 285.825 309.127 286.543C305.609 286.866 301.716 286.323 298.23 285.825C295.235 285.398 291.409 283.177 288.676 285.186C287.557 286.008 286.787 287.465 285.806 288.47C284.383 289.927 282.784 291.227 281.214 292.519C279.733 293.736 275.683 295.9 276.082 297.766C276.383 299.173 278.824 301.183 279.651 302.224C280.736 303.589 281.812 304.96 282.859 306.355C285.518 309.897 288.052 313.554 290.346 317.343C293.121 321.928 297.018 330.121 292.324 334.872C289.605 337.624 285.09 337.139 281.623 336.597C276.897 335.859 272.201 334.909 267.56 333.764C262.912 332.618 258.226 331.819 253.523 330.947C249.506 330.202 244.834 328.779 240.818 330.252C252.552 343.913 266.891 354.648 279.475 367.449ZM347.928 304.261C349.436 302.497 350.981 300.538 352.317 298.631C353.547 296.874 353.446 296.108 351.373 295.561C350.081 295.22 348.648 295.553 347.331 295.399C345.96 295.239 344.593 294.798 343.25 294.495C341.742 294.156 340.05 293.64 338.494 293.643C336.741 293.648 336.568 293.488 337.449 295.066C338.657 297.227 340.997 299.116 342.664 300.917C343.712 302.051 346.221 306.257 347.928 304.261ZM345.988 329.033C346.782 330.779 352.501 329.499 353.421 328.297C355.433 325.67 350.287 319.554 348.934 317.341C346.893 318.694 346.187 320.483 346.065 322.843C345.981 324.478 345.311 327.546 345.988 329.033ZM343.834 415.794C347.252 416.132 351.729 414.161 354.859 413.078C359.194 411.58 363.702 410.511 368.174 409.512C377.157 407.508 386.442 407.228 395.451 405.305C389.726 397.855 382.804 391.437 376.986 384.067C374.876 381.395 371.775 377.565 372.754 373.9C373.713 370.306 377.425 371.1 380.182 371.929C383.88 373.04 387.453 374.587 391.067 375.934C392.777 376.571 400.412 380.238 401.824 377.86C402.777 376.255 397.356 370.277 396.567 369.244C393.614 365.383 390.41 361.725 387.181 358.096C381.156 351.323 374.319 344.394 369.659 336.58C366.166 330.722 364.997 321.477 374.428 321.846C378.322 321.999 382.29 323.206 386.089 324.001C389.599 324.734 394.787 326.355 398.368 325.45C402.14 324.496 397.802 318.867 396.615 317.01C394.107 313.085 391.161 309.419 388.399 305.671C385.426 301.64 382.256 297.695 379.477 293.529C377.748 290.936 374.943 286.413 376.514 283.135C378.318 279.373 384.512 281.699 387.544 282.269C393.289 283.351 398.924 285.15 404.825 285.15C404.766 282.189 401.731 279.585 399.985 277.484C397.364 274.329 394.666 271.273 391.8 268.338C389.785 266.273 387.581 262.91 385.224 261.318C382.811 259.691 381.386 264.836 380.437 266.749C373.525 280.697 365.969 294.373 356.648 306.886C354.772 309.405 352.017 311.439 353.592 314.655C355.23 318 357.39 320.927 358.019 324.703C358.485 327.491 358.24 331.367 356.094 333.486C354.013 335.539 350.957 335.073 348.387 335.876C345.658 336.729 346.428 339.149 346.404 341.571C346.361 345.807 346.31 350.041 346.336 354.277C346.358 358.042 346.41 361.807 346.455 365.571C346.502 369.552 347.472 372.374 348.559 376.123C349.124 378.074 349.319 380.093 348.693 382.055C348.156 383.74 347.272 384.063 346.236 385.256C344.217 387.578 344.863 391.991 344.615 394.943C344.438 397.059 341.482 415.562 343.834 415.794ZM352.244 461.06C353.103 462.139 356.187 461.794 357.391 461.873C359.677 462.023 361.967 462.024 364.253 462.148C369.132 462.412 373.947 463.091 378.841 463.177C382.862 463.248 387.029 463.443 390.894 463.718C392.799 463.853 394.94 463.028 396.792 463.415C398.618 463.797 399.315 464.33 401.292 464.172C406.216 463.777 411.253 464.273 416.185 464.395C420.748 464.507 425.35 464.161 429.92 464.101C435.061 464.033 440.214 464.221 445.355 464.273C450.855 464.33 456.47 464.003 461.901 465.048C461.399 462.737 461.433 460.014 459.566 458.286C457.654 456.516 454.484 456.114 452.023 455.825C448.441 455.404 444.888 455.309 441.312 455.156C439.079 455.061 436.929 454.304 434.708 454.051C431.524 453.688 428.096 453.898 424.887 453.846C423.786 453.829 423.054 453.422 422.045 453.267C420.859 453.087 419.7 453.39 418.408 453.074C415.728 452.42 412.994 451.735 410.393 450.861C408.806 450.327 408.871 449.875 407.569 451.113C406.754 451.889 406.253 453.358 405.565 454.271C404.429 455.779 402.394 457.582 400.642 455.768C398.784 453.845 400.774 451.687 400.362 449.692C400.043 448.151 397.115 446.797 395.654 447.379C393.63 448.183 393.031 452.362 390.865 452.836C388.14 453.43 388.875 449.307 389.245 447.773C390.211 443.755 389.866 443.624 386.658 440.95C384.213 438.911 383.53 438.114 380.496 439.639C377.439 441.174 374.1 441.842 370.693 442.209C366.668 442.643 362.913 442.189 358.975 441.384C357.121 441.006 353.509 439.583 352.298 441.529C350.933 443.723 352.337 449.097 352.387 451.636C352.424 453.527 352.539 455.475 352.359 457.363C352.266 458.338 351.55 460.187 352.244 461.06ZM401.615 403.754C404.444 403.508 407.216 402.758 410.038 402.416C411.066 402.292 413.273 402.329 414.124 401.602C415.163 400.712 414.676 400.799 414.464 399.505C413.455 393.352 413.069 387.393 413.218 381.141C413.33 376.461 414.243 369.181 411.455 365.112C408.169 360.316 403.176 356.768 399.844 351.957C398.041 349.355 395.527 342.37 401.233 342.558C403.503 342.631 405.928 344.071 408.132 344.604C411.251 345.358 411.442 344.601 411.166 341.774C410.518 335.138 410.711 328.474 410.034 321.836C409.338 315.012 408.591 308.184 407.825 301.366C407.452 298.054 407.282 294.546 406.64 291.283C406.014 288.11 402.934 289.817 400.239 289.688C393.101 289.346 386.162 284.969 378.989 285.654C384.97 296.876 395.169 305.4 400.971 316.771C402.977 320.7 404.844 326.847 399.899 329.471C394.388 332.395 385.976 328.69 380.306 327.748C378.321 327.419 370.439 325.115 370.073 328.185C369.875 329.839 373.084 333.704 373.886 334.898C375.713 337.621 377.818 340.146 379.794 342.759C383.743 347.976 388.44 352.516 392.535 357.624C396.107 362.078 400.489 366.443 403.368 371.384C406.07 376.022 406.59 384.379 398.993 383.466C391.216 382.531 384.451 376.463 376.524 376.284C380.575 381.625 385.2 386.487 389.697 391.446C391.861 393.832 393.985 396.25 396.037 398.735C397.35 400.324 399.153 403.968 401.615 403.754ZM412.229 355.352C412.057 353.131 412.595 351.89 410.579 350.673C409.279 349.889 406.209 348.67 404.785 349.21C405.322 349.835 411.479 357.196 412.136 356.602C412.3 356.202 412.331 355.786 412.229 355.352ZM401.497 253.198C401.127 248.926 400.267 244.701 400.082 240.414C399.957 237.515 400.37 233.658 398.407 231.24C396.031 235.685 394.434 240.494 392.061 244.941C391.045 246.844 389.913 248.682 388.862 250.565C388.145 251.852 386.04 254.616 386.206 256.151C386.488 258.771 391.696 262.526 393.383 264.397C396.976 268.384 400.495 272.441 404.166 276.357C403.67 268.595 402.168 260.942 401.497 253.198ZM401.599 183.784C400.607 182.39 393.69 183.049 392.196 182.916C387.497 182.5 382.391 182.13 377.843 180.868C385.064 189.803 391.552 199.476 395.794 210.204C397.404 205.821 398.463 201.258 399.447 196.7C399.946 194.381 400.376 192.053 400.749 189.711C400.917 188.651 402.241 184.686 401.599 183.784ZM379.551 249.17C381.485 250.135 387.35 235.696 387.61 234.096C384.828 234.732 373.755 235.25 373.104 238.76C372.8 240.4 374.693 242.378 375.521 243.564C376.533 245.016 377.951 248.373 379.551 249.17ZM361.978 234.473C357.882 239.605 350.238 238.568 344.521 237.838C340.648 237.344 336.813 236.679 332.952 236.109C329.143 235.547 324.522 234.508 320.827 236.077C326.819 244.5 334.531 251.466 341.813 258.73C345.546 262.455 349.153 266.303 352.742 270.166C356.262 273.956 359.07 278.725 362.804 282.237C365.973 276.447 368.972 270.57 372.028 264.72C373.311 262.263 374.963 260.051 376.28 257.622C377.731 254.946 377.954 253.715 376.102 251.29C373.346 247.68 369.471 242.791 370.025 237.942C370.672 232.281 377.397 231.66 381.8 230.439C384.013 229.825 386.553 229.36 388.575 228.243C391.145 226.822 391.261 224.478 392.111 221.933C393.14 218.854 394.084 216.853 392.998 213.614C392.093 210.919 390.74 208.243 389.49 205.696C386.862 200.342 383.577 195.413 380.093 190.586C377.803 187.413 375.103 181.083 371.007 180.236C368.101 179.635 364.434 179.882 361.453 179.717C357.978 179.525 354.498 179.417 351.021 179.266C343.816 178.954 336.099 178.273 328.928 179.224C337.373 188.355 345.909 197.259 353.421 207.204C358.259 213.609 368.58 226.198 361.978 234.473ZM394.296 165.391C390.38 158.128 386.743 150.945 381.44 144.602C376.854 139.116 372.694 133.392 367.934 128.036C357.949 116.797 344.99 108.491 332.909 99.759C330.176 97.7828 326.678 96.7059 323.679 94.9825C319.967 92.8507 315.991 91.0716 311.974 89.5978C304.688 86.9253 296.321 85.5611 288.562 86.1038C279.986 86.7029 273.516 89.7334 268.192 96.4232C262.972 102.98 262.163 110.219 262.022 118.46C261.955 122.376 261.907 126.315 261.945 130.232C261.983 134.108 262.486 136.558 264.86 139.545C266.814 142.002 270.931 143.243 273.74 144.379C277.561 145.924 281.138 147.647 284.703 149.725C286.245 150.625 289.908 154.009 291.81 153.65C294.613 153.12 295.3 148.145 295.579 145.937C296.623 137.677 296.511 129.231 296.005 120.931C295.747 116.681 293.77 110.296 294.89 105.995C295.355 104.208 296.417 103.575 297.728 105.152C299.35 107.104 299.749 111.684 300.168 114.037C301.644 122.327 301.547 130.66 301.594 139.042C301.614 142.373 303.473 144.1 304.692 147.068C306.25 150.862 307.526 154.822 308.294 158.853C308.74 161.193 309.055 163.577 309.021 165.964C309.003 167.275 308.357 169.361 308.861 170.606C309.838 173.023 315.904 171.671 317.937 171.626C327.001 171.424 336.038 170.941 345.115 170.825C363.493 170.589 382 173.319 399.997 176.786C398.133 172.97 396.311 169.131 394.296 165.391ZM386.398 126.612C387.837 126.848 392.674 129.493 393.51 127.816C394.224 126.383 390.694 121.251 390.166 119.884C388.942 116.711 388.645 113.167 387.924 109.854C387.469 107.766 387.426 103.64 386.297 101.78C385.034 99.7 382.091 100.745 380.002 100.807C376.439 100.913 372.84 100.911 369.274 100.899C365.648 100.886 362.024 100.791 358.398 100.802C354.691 100.813 351.03 100.198 347.351 100.198C347.764 101.53 349.489 102.181 350.572 102.808C352.241 103.774 353.646 104.923 355.109 106.184C358.536 109.139 361.954 111.501 364.829 115.026C367.426 118.213 371.054 121.621 374.278 124.183C376.005 125.554 377.186 125.444 379.278 125.426C381.78 125.405 383.956 126.213 386.398 126.612ZM395.277 119.512C396.177 122.271 396.261 123.081 399.181 122.886C402.934 122.633 406.696 122.397 410.455 122.125C419.032 121.505 427.615 120.223 436.193 119.79C443.506 119.421 451.402 118.538 458.669 119.3C462.061 119.655 465.676 118.971 469.135 119.107C473.31 119.271 477.525 119.253 481.52 120.539C484.849 121.612 487.631 122.191 490.01 124.965C492.407 127.758 494.043 131.279 495.636 134.565C498.726 140.937 501.144 149.257 506.578 154.083C507.951 155.302 510.295 157.372 512.292 157.142C515.578 156.764 514.57 152.412 514.281 150.204C513.309 142.764 510.388 136.334 508.209 129.229C507.557 127.105 506.267 121.494 509.641 120.712C512.069 120.15 515.884 125.492 517.279 126.927C520.351 130.087 523.358 133.153 526.793 135.935C529.629 138.232 532.479 140.77 536.398 140.277C534.523 135.218 532.453 130.319 529.381 125.855C526.744 122.023 522.3 118.575 520.652 114.167C519.41 110.848 520.509 106.32 524.37 109.24C527.722 111.776 530.625 114.878 534.052 117.369C538.549 120.636 543.653 123.344 548.985 124.96C550.749 125.494 553.878 126.529 555.569 125.254C558.09 123.352 555.518 119.384 554.103 117.636C540.83 101.244 518.759 95.3651 498.619 94.1293C493.369 93.807 487.91 94.3244 482.639 94.399C477.638 94.4684 472.997 95.0811 468.055 95.8124C457.796 97.3303 447.515 98.5648 437.3 100.081C434.566 100.487 431.321 101.291 428.599 101.185C427.477 101.142 426.895 100.841 425.776 101.141C424.822 101.397 424.135 101.908 423.071 102.08C417.018 103.057 410.857 103.437 404.724 103.516C401.773 103.553 398.793 103.497 395.864 103.11C394.14 102.883 392.374 102.166 391.888 104.215C391.522 105.76 392.744 108.686 393.164 110.174C394.022 113.216 394.316 116.566 395.277 119.512ZM285.546 66.5231C286.578 66.562 288.278 66.717 288.613 65.4274C289.245 62.9979 285.998 64.4808 285.396 62.9513C284.726 61.2487 287.012 60.8078 288.021 60.5329C290.076 59.9714 289.547 60.0913 289.603 57.9569C289.655 55.9878 290.29 54.1944 291.089 52.4108C292.199 49.9327 292.256 50.0578 289.766 49.7732C285.576 49.2947 284.662 45.5932 283.112 42.2068C282.156 40.1171 281.097 38.0786 280.502 35.8463C280.14 34.4918 280.19 32.3393 278.867 31.5761C277.08 30.5452 272.919 31.6112 271.036 31.8588C267.889 32.2725 264.58 32.7419 261.571 33.7981C258.99 34.7039 258.007 36.8046 255.681 37.1767C254.177 37.4166 245.125 36.8493 246.314 39.6237C247.054 41.3522 250.55 40.3648 251.838 40.3129C253.483 40.2474 255.488 40.0023 257.119 40.3239C258.749 40.6461 258.902 41.2563 259.538 42.8791C258.011 42.8033 252.298 41.9494 251.05 43.073C249.942 44.0695 250.76 45.162 251.874 45.5283C254.047 46.2435 256.984 44.856 259.265 45.4525C260.888 45.8772 260.775 45.9349 261.444 47.5655C261.793 48.4162 262.19 49.2863 262.338 50.2011C263.176 55.3686 258.438 51.3572 256.469 50.2128C252.865 48.1192 248.959 48.5102 249.659 53.5402C249.89 55.2046 250.787 56.6608 251.939 57.8609C253.562 59.5525 253.983 59.8715 254.067 62.4274C254.139 64.6266 253.903 66.9796 254.681 69.0913C255.539 71.417 257.367 73.399 258.794 75.3843C260.509 77.769 262.283 80.1246 263.936 82.552C264.649 83.5979 265.666 86.2302 267.039 86.579C268.332 86.9065 270.336 84.8317 271.406 84.2378C274.001 82.7984 276.852 81.8615 279.519 80.5732C277.284 78.5853 275.294 76.3303 273.105 74.3333C271.395 72.774 270.511 72.4771 271.075 69.844C272.339 63.9374 281.224 66.361 285.546 66.5231ZM251.937 190.645C244.873 197.487 234.369 201.764 224.814 203.486C214.804 205.29 203.39 206.626 193.639 203.138C183.641 199.561 174.292 194.418 165.828 188.019C164.787 187.232 153.129 175.846 152.19 176.744C155.653 181.931 159.288 186.99 162.959 192.031C164.763 194.507 171 203.03 167.413 206.113C165.038 208.155 160.997 204.864 159.047 203.545C154.352 200.369 149.122 198.658 143.415 198.658C146.052 203.5 150.06 207.787 152.204 212.9C153.217 215.317 152.701 215.142 150.413 214.485C147.549 213.663 144.3 212.713 141.312 212.578C139.922 212.515 137.1 213.127 136.865 214.942C136.64 216.679 140.327 219.955 141.355 221.199C145.126 225.759 148.969 230.087 153.63 233.764C162.578 240.821 173.2 245.371 184.011 248.751C195.056 252.204 206.861 253.244 218.152 250.465C223.746 249.088 228.878 247.22 233.889 244.432C236.157 243.17 238.543 242.598 240.725 241.115C242.991 239.574 245.288 238.037 247.602 236.57C252.366 233.55 255.32 230.512 258.644 225.973C259.982 224.148 261.817 222.795 263.091 220.998C264.495 219.018 265.94 217.001 267.249 214.917C273.287 205.306 279.203 194.975 282.722 184.14C284.537 178.554 285.77 172.807 287.292 167.139C287.816 165.189 289.75 161.438 289.346 159.457C288.957 157.546 285.934 156.771 284.437 155.96C280.068 153.596 275.684 151.496 271.42 148.982C265.53 145.507 266.573 152.631 266.192 156.745C265.058 168.974 260.95 181.914 251.937 190.645ZM301.756 195.319C302.999 196.385 306.143 197.046 307.733 196.56C306.166 194.224 303.75 192.692 301.718 190.813C301.497 192.105 300.514 194.255 301.756 195.319ZM294.172 278.407C297.032 278.616 300.017 279.475 302.853 279.498C305.383 279.518 308.584 279.724 311.042 279.181C317.824 277.681 313.814 271.544 311.454 267.538C310.149 265.323 308.498 263.341 307.138 261.165C306.809 260.64 305.898 258.499 305.169 258.427C304.098 258.32 303.765 260.077 303.249 261.152C301.852 264.064 300.56 267.073 298.975 269.889C297.38 272.72 295.153 275.26 294.172 278.407ZM220.811 321.501C220.225 318.243 210.697 321.552 208.541 321.94C207.923 322.052 200.458 322.961 200.525 323.61C202.996 323.793 221.54 325.555 220.811 321.501ZM91.2436 394.225C89.7838 394.86 89.8356 390.214 89.7682 389.597C89.6321 388.355 89.4611 386.119 90.0922 385.027C90.5555 384.227 90.6915 384.634 90.9403 384.423C92.9781 382.695 90.5172 381.956 90.0591 380.578C89.9179 380.154 89.9049 378.987 90.1155 378.634C90.7168 377.621 90.884 378.378 91.5987 377.954C92.0781 377.669 93.0507 378.372 92.7695 377.075C92.5375 376.004 91.7185 376.661 91.3084 376.326C89.7488 375.051 89.9075 373.378 90.1576 371.341C90.3948 369.406 90.6235 367.335 91.193 365.503C91.4853 364.562 91.8838 364.986 91.852 363.876C91.8352 363.296 90.9546 362.724 90.9254 361.995C90.8905 361.089 91.7302 359.636 91.7775 358.68C91.8397 357.427 91.8514 356.338 91.7114 355.153C91.6259 354.427 91.4334 354.163 91.3933 353.279C91.3563 352.446 91.5384 351.471 91.5559 350.604C91.6051 348.141 91.9337 345.665 92.3665 343.31C92.6205 342.94 92.82 342.543 92.9671 342.118C92.8661 341.676 92.6969 341.263 92.4604 340.876C92.395 339.75 92.4164 338.65 92.43 337.508C92.4553 335.389 92.0509 333.378 91.9272 331.289C91.8909 330.668 91.6466 329.634 92.0775 329.06C92.406 328.623 93.5548 328.731 93.6812 328.311C94.044 327.108 92.9574 327.826 92.7222 327.217C92.5337 326.729 92.6296 326.086 92.5985 325.596C92.511 324.268 94.4218 315.246 96.0767 316.419C95.417 315.952 96.711 312.845 97.1309 312.32C98.6911 310.365 99.6229 312.579 100.888 313.954C102.659 315.878 104.201 314.64 106.501 314.206C109.349 313.669 112.478 313.858 115.365 313.92C118.324 313.985 121.325 314.151 124.273 314.412C127.447 314.693 130.52 315.652 133.726 315.604C138.477 315.532 143.29 315.643 148.037 315.473C148.986 315.439 151.285 315.538 151.684 314.33C151.834 313.876 150.976 312.923 150.847 312.423C150.599 311.462 150.581 310.2 151.005 309.259C152.284 306.421 154.948 308.738 156.823 309.77C159.65 311.323 162.579 312.646 165.701 313.486C178.152 316.836 192.841 316.649 205.555 315.067C218.466 313.461 231.229 309.574 243.817 306.39C255.31 303.482 265.918 297.036 274.74 289.148C283.734 281.107 290.831 269.955 295.273 258.76C300.222 246.288 296.622 233.731 296.496 220.974C296.434 214.613 295.018 208.404 294.631 202.062C294.255 195.912 294.781 190.14 296.626 184.12C297.096 182.587 297.757 181.046 298.1 179.477C298.418 178.024 297.856 176.858 298.042 175.488C298.443 172.555 301.685 172.853 303.102 170.672C304.386 168.698 303.063 165.625 302.609 163.508C301.819 159.832 300.836 156.201 299.932 152.552C298.999 154.724 298.127 156.892 297.564 159.194C297.418 159.784 297.405 160.825 297.002 161.349C296.71 161.729 295.973 161.679 295.743 162.029C294.965 163.208 295.054 164.39 294.919 165.905C294.657 168.846 294.181 171.754 293.698 174.663C292.073 184.438 290.836 194.071 286.996 203.298C279.919 220.302 270.36 236.124 256.224 248.186C249.817 253.652 241.67 257.05 233.916 259.93C224.667 263.365 215.869 265.227 205.94 264.335C196.57 263.494 187.205 260.585 178.622 256.812C170.168 253.095 162.231 249.824 155.012 243.837C147.299 237.438 139.596 229.716 134.291 221.153C132.356 218.03 128.912 211.588 129.756 207.677C130.839 202.662 138.542 205.969 141.324 207.008C138.983 203.176 132.717 196.353 135.832 191.574C140.38 184.599 152.283 191.662 157.157 194.247C154.646 189.138 150.807 184.845 148.085 179.859C146.737 177.389 143.011 167.343 148.486 166.799C150.143 166.634 151.903 168.527 153.074 169.475C155.347 171.318 157.602 173.181 159.856 175.047C164.783 179.124 169.983 182.591 175.658 185.543C187.014 191.451 197.999 194.589 210.898 193.332C221.887 192.262 234.006 188.922 242.552 181.676C247.684 177.326 251.764 172.513 254.4 166.261C257.311 159.356 259.167 151.772 261.203 144.569C258.046 143.756 255.834 144.227 256.443 140.472C257.174 135.97 257.013 131.416 257.039 126.847C257.095 117.375 257.27 107.799 260.233 98.7106C260.76 97.093 261.225 95.426 262.133 93.9698C263.253 92.1738 264.293 91.9067 262.851 89.9486C260.075 86.179 257.191 82.9566 255.132 78.6249C254.061 76.3718 253.067 74.1648 251.747 72.0589C249.582 68.6057 246.752 66.0719 243.974 63.0803C240.786 59.6472 238.288 56.4086 236.648 51.9984C235.883 49.9398 234.839 47.8916 234.443 45.717C233.971 43.1242 234.461 40.4717 234.684 37.8776C235.425 29.2718 238.315 22.3272 246.776 18.9648C253.651 16.2319 261.556 15.0551 268.764 17.1681C277.486 19.7253 281.619 27.378 285.772 34.7836C286.944 36.872 287.665 39.0816 288.727 41.2011C289.816 43.3738 290.946 43.3771 292.952 44.2588C296.928 46.0055 296.591 51.044 294.865 54.3559C292.672 58.5644 293.115 63.4401 291.225 67.8335C289.289 72.3325 286.285 73.5858 281.703 74.594C283.45 75.9815 285.043 77.7956 287.269 78.3889C289.972 79.1086 293.246 78.4219 296.043 78.4615C301.852 78.5432 307.725 79.3303 313.245 81.1872C318.665 83.0104 323.523 85.9281 328.562 88.5391C330.866 89.7327 333.014 91.4353 335.646 91.7815C338.199 92.118 340.772 91.4885 343.34 91.8185C348.971 92.5427 355.145 91.6298 360.888 91.5047C367.074 91.3698 373.281 91.4561 379.454 91.0035C382.121 90.8083 384.755 90.5276 387.431 90.7604C389.862 90.9711 391.312 90.3986 393.415 92.0629C394.813 93.169 395.926 95.8766 397.574 96.2455C399.329 96.6391 402.788 95.5382 404.522 95.2769C410.352 94.3977 416.227 93.2352 422.021 92.1634C424.736 91.6609 427.294 90.7455 430.033 90.2728C432.858 89.7846 435.793 89.6257 438.584 88.9975C443.102 87.9808 447.98 87.6022 452.69 86.9525C458.206 86.192 463.879 84.5879 469.439 84.385C492.712 83.5356 518.797 82.1539 539.432 95.0577C544.277 98.0876 549.256 101.956 552.988 106.291C556.417 110.272 560.627 115.54 561.502 120.845C562.283 125.581 561.713 133.877 555.381 133.935C549.206 133.992 542.861 130.305 537.548 127.575C539.817 133.015 546.714 144.668 540.727 149.951C534.549 155.403 523.174 143.573 519.094 139.775C519.9 145.588 525.658 166.714 514.763 167.041C504.128 167.36 497.959 154.252 494.17 146.469C492.171 142.361 490.678 137.534 487.431 134.19C484.166 130.828 479.639 130.94 475.22 130.51C464.479 129.465 453.796 129.411 442.993 129.152C429.319 128.825 415.89 131.078 402.199 129.806C402.372 132.446 401.369 137.251 398.694 138.262C394.754 139.752 389.921 137.61 385.886 137.61C386.157 139.224 388.456 140.925 389.424 142.143C391.159 144.328 392.652 146.67 394.048 149.082C396.775 153.793 399.676 158.512 401.612 163.619C402.586 166.187 403.418 168.837 404.12 171.492C404.523 173.019 404.516 175.302 405.333 176.651C406.349 178.329 407.908 177.361 409.195 178.676C411.05 180.574 409.114 181.573 408.53 183.245C407.896 185.055 408.692 188.12 408.45 190.11C408.088 193.097 407.705 196.104 407.209 199.072C406.303 204.496 404.381 209.513 403.095 214.808C401.874 219.831 405.178 225.143 406.268 230.002C407.534 235.642 408.269 241.347 409.568 246.977C410.941 252.92 411.578 259.04 412.524 265.06C413.448 270.942 414.779 276.752 415.682 282.638C417.403 293.855 418.497 305.277 419.853 316.539C420.565 322.443 421.112 328.423 421.164 334.373C421.213 339.943 421.999 345.384 422.114 350.944C422.236 356.838 422.305 362.736 422.56 368.625C422.811 374.45 422.089 380.25 421.824 386.067C421.699 388.839 421.605 391.616 421.647 394.391C421.681 396.734 422.323 399.475 421.742 401.768C420.595 406.3 414.216 409.022 410.212 410.341C405.318 411.954 400.151 413.067 395.14 414.258C392.699 414.839 390.226 415.333 387.744 415.697C386.779 415.839 385.66 415.781 384.759 416.192C383.402 416.81 383.669 416.499 383.597 418.043C383.481 420.539 384.211 423.271 384.592 425.717C384.942 427.969 384.496 431.672 385.366 433.69C386.357 435.986 393.337 437.866 395.045 436.309C396.249 435.21 396.594 433.134 398.013 432.21C400.057 430.877 400.995 432.744 400.986 434.749C400.978 436.261 399.835 438.084 401.209 439.188C402.4 440.145 404.912 439.644 406.062 438.856C407.98 437.543 411.958 429.414 412.931 436.328C413.161 437.957 412.458 439.854 413.839 441.09C415.133 442.249 418.254 442.197 419.886 442.404C422.491 442.734 424.772 442.844 427.402 442.788C430.338 442.725 433.111 443.414 435.997 443.544C440.494 443.746 445.007 444.354 449.605 444.443C454.3 444.535 459.416 445.761 463.026 448.946C467.172 452.603 466.319 457.124 465.528 462.022C465.006 465.262 469.138 468.761 464.967 471.594C463.294 472.729 460.514 472.49 458.59 472.507C455.303 472.538 452.051 472.154 448.759 472.338C424.782 473.673 400.712 472.678 376.74 471.887C371.14 471.702 365.323 471.959 359.77 471.282C357.296 470.981 354.841 470.55 352.362 470.285C350.241 470.059 347.709 470.432 345.684 469.743C340.668 468.037 346.035 462.847 346.435 459.883C347.212 454.128 346.882 448.031 346.92 442.233C346.959 436.069 346.92 429.904 346.92 423.74C344.253 423.926 336.769 425.901 334.678 423.612C332.95 421.719 335.891 417.767 336.036 415.495C336.623 406.232 336.425 396.96 337.124 387.689C337.845 378.128 337.756 368.652 338.056 359.09C338.376 348.876 339.101 338.698 339.101 328.469C331.639 336.369 324.513 345.044 316.215 352.086C312.661 355.102 308.791 357.712 305.079 360.524C300.897 363.693 297.004 367.218 292.846 370.417C285.112 376.368 275.914 379.847 267.743 385.138C259.483 390.487 250.669 394.892 241.159 397.539C230.764 400.433 219.741 401.396 208.984 400.841C203.823 400.575 198.688 399.911 193.606 398.984C191.487 398.597 189.389 398.093 187.27 397.713C184.272 397.176 182.811 397.678 180.004 398.227C176.316 398.949 175.398 393.561 174.304 390.971C172.287 386.193 171.415 380.973 169.63 376.087C166.51 367.542 163.634 359.094 160.873 350.405C160.247 348.433 159.829 345.014 157.478 344.736C155.892 344.549 153.159 346.319 151.603 346.808C148.898 347.657 146.334 348.039 143.516 348.109C141.142 348.167 140.858 349.057 139.373 350.747C138.013 352.296 135.556 353.184 136.018 355.433C136.291 356.765 137.706 357.793 137.97 359.298C138.919 364.697 133.498 360.029 131.593 358.85C130.439 361.395 139.158 364.221 135.981 367.824C134.425 369.589 131.181 366.908 129.633 366.223C126.023 364.625 125.474 368.971 124.513 371.788C122.748 376.959 121.567 382.385 120.215 387.675C118.912 392.774 117.853 397.983 115.798 402.85C113.966 407.187 110.776 410.019 108.498 413.936C107.377 415.863 106.139 417.252 103.715 417.343C102.076 417.406 99.0436 416.761 97.495 416.136C96.0326 415.545 94.4471 413.747 93.4246 412.619C92.0049 411.052 92.2855 409.538 91.136 407.621C91.1859 408.583 91.4004 409.479 91.4522 410.419C89.3542 408.767 91.4457 406.17 91.0647 404.076C90.9449 403.413 90.2613 402.857 90.2224 402.161C90.2056 401.876 90.8146 401.22 90.8555 400.823C90.9041 400.353 90.9423 398.986 90.8088 398.637C90.7123 398.386 89.9049 397.109 89.9224 397.341C89.9101 397.171 89.625 396.905 89.7779 396.347C90.0092 395.504 91.3505 395.354 91.2436 394.225Z" fill="#333333"/>
</svg>
